<?xml version="1.0" encoding="UTF-8" standalone="no"?>
<svg
   class="center"
   width="500"
   height="400"
   viewBox="0 0 312.49875 249.999"
   version="1.2"
   id="svg599"
   sodipodi:docname="karte.svg"
   inkscape:version="1.1.1 (c3084ef, 2021-09-22)"
   xmlns:inkscape="http://www.inkscape.org/namespaces/inkscape"
   xmlns:sodipodi="http://sodipodi.sourceforge.net/DTD/sodipodi-0.dtd"
   xmlns="http://www.w3.org/2000/svg"
   xmlns:svg="http://www.w3.org/2000/svg">
  <defs
     id="defs603" />
  <sodipodi:namedview
     id="namedview601"
     pagecolor="#505050"
     bordercolor="#eeeeee"
     borderopacity="1"
     inkscape:pageshadow="0"
     inkscape:pageopacity="0"
     inkscape:pagecheckerboard="0"
     inkscape:document-units="pt"
     showgrid="false"
     inkscape:zoom="1.1137889"
     inkscape:cx="256.33225"
     inkscape:cy="259.92359"
     inkscape:window-width="1377"
     inkscape:window-height="847"
     inkscape:window-x="0"
     inkscape:window-y="25"
     inkscape:window-maximized="0"
     inkscape:current-layer="surface132728"
     width="301px"
     scale-x="1.03333" />
  <g
     id="surface132728">
    <path
       style="fill:#ffffff;fill-opacity:1;fill-rule:nonzero;stroke:none;stroke-width:1.16801"
       d="M 5.7716571,1.2432237 H 305.57476 V 250.28544 H 5.7716571 Z m 0,0"
       id="path404" />
    <g
       class="regalgruppe"
       id="g730"
       transform="translate(-2.3792707,-26.12694)">
      <path
         class="regal"
         onclick="select('Regal_A1')"
         style="fill-opacity:1;fill-rule:nonzero;stroke:#000000;stroke-width:0.264583;stroke-linecap:butt;stroke-linejoin:miter;stroke-miterlimit:4;stroke-opacity:1"
         d="m 16.606061,23.686388 h 5.881467 v 3.46301 h -5.881467 z m 0,0"
         transform="matrix(2.834646,0,0,2.834646,135.02145,93.302796)"
         id="path406" />
      <path
         class="regal"
         style="fill:#ffffff;fill-opacity:1;fill-rule:nonzero;stroke:#000000;stroke-width:0.264583;stroke-linecap:butt;stroke-linejoin:miter;stroke-miterlimit:4;stroke-opacity:1"
         d="m 22.487528,23.686388 h 5.880089 v 3.46301 h -5.880089 z m 0,0"
         transform="matrix(2.834646,0,0,2.834646,135.02145,93.302796)"
         id="path408" />
      <path
         class="regal"
         style="fill:#ffffff;fill-opacity:1;fill-rule:nonzero;stroke:#000000;stroke-width:0.264583;stroke-linecap:butt;stroke-linejoin:miter;stroke-miterlimit:4;stroke-opacity:1"
         d="m 28.367617,23.686388 h 5.881467 v 3.46301 h -5.881467 z m 0,0"
         transform="matrix(2.834646,0,0,2.834646,135.02145,93.302796)"
         id="path410" />
      <path
         class="regal"
         style="fill:#ffffff;fill-opacity:1;fill-rule:nonzero;stroke:#000000;stroke-width:0.264583;stroke-linecap:butt;stroke-linejoin:miter;stroke-miterlimit:4;stroke-opacity:1"
         d="m 34.249084,23.686388 h 5.880089 v 3.46301 h -5.880089 z m 0,0"
         transform="matrix(2.834646,0,0,2.834646,135.02145,93.302796)"
         id="path412" />
      <path
         class="regal"
         style="fill:#ffffff;fill-opacity:1;fill-rule:nonzero;stroke:#000000;stroke-width:0.264583;stroke-linecap:butt;stroke-linejoin:miter;stroke-miterlimit:4;stroke-opacity:1"
         d="m 40.129173,-27.149398 h 5.881467 v 3.46301 h -5.881467 z m 0,0"
         transform="matrix(2.834646,0,0,-2.834646,135.02145,93.302796)"
         id="path414" />
      <path
         class="regal"
         style="fill:#ffffff;fill-opacity:1;fill-rule:nonzero;stroke:#000000;stroke-width:0.264583;stroke-linecap:butt;stroke-linejoin:miter;stroke-miterlimit:4;stroke-opacity:1"
         d="m 46.01064,23.686388 h 5.881467 v 3.46301 H 46.01064 Z m 0,0"
         transform="matrix(2.834646,0,0,2.834646,135.02145,93.302796)"
         id="path416" />
      <path
         class="regal"
         style="fill:#ffffff;fill-opacity:1;fill-rule:nonzero;stroke:#000000;stroke-width:0.264583;stroke-linecap:butt;stroke-linejoin:miter;stroke-miterlimit:4;stroke-opacity:1"
         d="m 46.01064,20.224756 h 5.881467 v 3.461632 H 46.01064 Z m 0,0"
         transform="matrix(2.834646,0,0,2.834646,135.02145,93.302796)"
         id="path418" />
      <path
         class="regal"
         style="fill:#ffffff;fill-opacity:1;fill-rule:nonzero;stroke:#000000;stroke-width:0.264583;stroke-linecap:butt;stroke-linejoin:miter;stroke-miterlimit:4;stroke-opacity:1"
         d="m 40.129173,20.224756 h 5.881467 v 3.461632 h -5.881467 z m 0,0"
         transform="matrix(2.834646,0,0,2.834646,135.02145,93.302796)"
         id="path420" />
      <path
         class="regal"
         style="fill:#ffffff;fill-opacity:1;fill-rule:nonzero;stroke:#000000;stroke-width:0.264583;stroke-linecap:butt;stroke-linejoin:miter;stroke-miterlimit:4;stroke-opacity:1"
         d="m 34.249084,20.224756 h 5.880089 v 3.461632 h -5.880089 z m 0,0"
         transform="matrix(2.834646,0,0,2.834646,135.02145,93.302796)"
         id="path422" />
      <path
         class="regal"
         style="fill:#ffffff;fill-opacity:1;fill-rule:nonzero;stroke:#000000;stroke-width:0.264583;stroke-linecap:butt;stroke-linejoin:miter;stroke-miterlimit:4;stroke-opacity:1"
         d="m 28.367617,20.224756 h 5.881467 v 3.461632 h -5.881467 z m 0,0"
         transform="matrix(2.834646,0,0,2.834646,135.02145,93.302796)"
         id="path424" />
      <path
         class="regal"
         style="fill:#ffffff;fill-opacity:1;fill-rule:nonzero;stroke:#000000;stroke-width:0.264583;stroke-linecap:butt;stroke-linejoin:miter;stroke-miterlimit:4;stroke-opacity:1"
         d="m 22.487528,20.224756 h 5.880089 v 3.461632 h -5.880089 z m 0,0"
         transform="matrix(2.834646,0,0,2.834646,135.02145,93.302796)"
         id="path426" />
      <path
         class="regal"
         style="fill:#ffffff;fill-opacity:1;fill-rule:nonzero;stroke:#000000;stroke-width:0.264583;stroke-linecap:butt;stroke-linejoin:miter;stroke-miterlimit:4;stroke-opacity:1"
         d="m 16.606061,20.224756 h 5.881467 v 3.461632 h -5.881467 z m 0,0"
         transform="matrix(2.834646,0,0,2.834646,135.02145,93.302796)"
         id="path428" />
    </g>
    <g
       class="regalgruppe"
       id="g659"
       transform="translate(-2.3792707,-26.12694)">
      <path
         style="fill:#ffffff;fill-opacity:1;fill-rule:nonzero;stroke:#000000;stroke-width:0.264583;stroke-linecap:butt;stroke-linejoin:miter;stroke-miterlimit:4;stroke-opacity:1"
         d="m 16.606925,23.686426 h 5.880089 v 3.46301 h -5.880089 z m 0,0"
         transform="matrix(2.834646,0,0,2.834646,-1.305218,94.001907)"
         id="path430" />
      <path
         style="fill:#ffffff;fill-opacity:1;fill-rule:nonzero;stroke:#000000;stroke-width:0.264583;stroke-linecap:butt;stroke-linejoin:miter;stroke-miterlimit:4;stroke-opacity:1"
         d="m 22.487014,23.686426 h 5.881467 v 3.46301 h -5.881467 z m 0,0"
         transform="matrix(2.834646,0,0,2.834646,-1.305218,94.001907)"
         id="path432" />
      <path
         style="fill:#ffffff;fill-opacity:1;fill-rule:nonzero;stroke:#000000;stroke-width:0.264583;stroke-linecap:butt;stroke-linejoin:miter;stroke-miterlimit:4;stroke-opacity:1"
         d="m 28.368481,23.686426 h 5.880089 v 3.46301 h -5.880089 z m 0,0"
         transform="matrix(2.834646,0,0,2.834646,-1.305218,94.001907)"
         id="path434" />
      <path
         style="fill:#ffffff;fill-opacity:1;fill-rule:nonzero;stroke:#000000;stroke-width:0.264583;stroke-linecap:butt;stroke-linejoin:miter;stroke-miterlimit:4;stroke-opacity:1"
         d="m 34.24857,23.686426 h 5.881467 v 3.46301 H 34.24857 Z m 0,0"
         transform="matrix(2.834646,0,0,2.834646,-1.305218,94.001907)"
         id="path436" />
      <path
         style="fill:#ffffff;fill-opacity:1;fill-rule:nonzero;stroke:#000000;stroke-width:0.264583;stroke-linecap:butt;stroke-linejoin:miter;stroke-miterlimit:4;stroke-opacity:1"
         d="m 40.130037,-27.149436 h 5.880089 v 3.46301 h -5.880089 z m 0,0"
         transform="matrix(2.834646,0,0,-2.834646,-1.305218,94.001907)"
         id="path438" />
      <path
         style="fill:#ffffff;fill-opacity:1;fill-rule:nonzero;stroke:#000000;stroke-width:0.264583;stroke-linecap:butt;stroke-linejoin:miter;stroke-miterlimit:4;stroke-opacity:1"
         d="m 46.010126,23.686426 h 5.881467 v 3.46301 h -5.881467 z m 0,0"
         transform="matrix(2.834646,0,0,2.834646,-1.305218,94.001907)"
         id="path440" />
      <path
         style="fill:#ffffff;fill-opacity:1;fill-rule:nonzero;stroke:#000000;stroke-width:0.264583;stroke-linecap:butt;stroke-linejoin:miter;stroke-miterlimit:4;stroke-opacity:1"
         d="m 46.010126,20.224794 h 5.881467 v 3.461632 h -5.881467 z m 0,0"
         transform="matrix(2.834646,0,0,2.834646,-1.305218,94.001907)"
         id="path442" />
      <path
         style="fill:#ffffff;fill-opacity:1;fill-rule:nonzero;stroke:#000000;stroke-width:0.264583;stroke-linecap:butt;stroke-linejoin:miter;stroke-miterlimit:4;stroke-opacity:1"
         d="m 40.130037,20.224794 h 5.880089 v 3.461632 h -5.880089 z m 0,0"
         transform="matrix(2.834646,0,0,2.834646,-1.305218,94.001907)"
         id="path444" />
      <path
         style="fill:#ffffff;fill-opacity:1;fill-rule:nonzero;stroke:#000000;stroke-width:0.264583;stroke-linecap:butt;stroke-linejoin:miter;stroke-miterlimit:4;stroke-opacity:1"
         d="m 34.24857,20.224794 h 5.881467 v 3.461632 H 34.24857 Z m 0,0"
         transform="matrix(2.834646,0,0,2.834646,-1.305218,94.001907)"
         id="path446" />
      <path
         style="fill:#ffffff;fill-opacity:1;fill-rule:nonzero;stroke:#000000;stroke-width:0.264583;stroke-linecap:butt;stroke-linejoin:miter;stroke-miterlimit:4;stroke-opacity:1"
         d="m 28.368481,20.224794 h 5.880089 v 3.461632 h -5.880089 z m 0,0"
         transform="matrix(2.834646,0,0,2.834646,-1.305218,94.001907)"
         id="path448" />
      <path
         style="fill:#ffffff;fill-opacity:1;fill-rule:nonzero;stroke:#000000;stroke-width:0.264583;stroke-linecap:butt;stroke-linejoin:miter;stroke-miterlimit:4;stroke-opacity:1"
         d="m 22.487014,20.224794 h 5.881467 v 3.461632 h -5.881467 z m 0,0"
         transform="matrix(2.834646,0,0,2.834646,-1.305218,94.001907)"
         id="path450" />
      <path
         style="fill:#ffffff;fill-opacity:1;fill-rule:nonzero;stroke:#000000;stroke-width:0.264583;stroke-linecap:butt;stroke-linejoin:miter;stroke-miterlimit:4;stroke-opacity:1"
         d="m 16.606925,20.224794 h 5.880089 v 3.461632 h -5.880089 z m 0,0"
         transform="matrix(2.834646,0,0,2.834646,-1.305218,94.001907)"
         id="path452" />
    </g>
    <g
       class="regalgruppe"
       id="g716"
       transform="translate(-2.3792707,-26.12694)">
      <path
         style="fill:#ffffff;fill-opacity:1;fill-rule:nonzero;stroke:#000000;stroke-width:0.264583;stroke-linecap:butt;stroke-linejoin:miter;stroke-miterlimit:4;stroke-opacity:1"
         d="m 16.606023,23.685981 h 5.881467 v 3.463009 h -5.881467 z m 0,0"
         transform="matrix(2.834646,0,0,2.834646,134.32234,60.444575)"
         id="path454" />
      <path
         style="fill:#ffffff;fill-opacity:1;fill-rule:nonzero;stroke:#000000;stroke-width:0.264583;stroke-linecap:butt;stroke-linejoin:miter;stroke-miterlimit:4;stroke-opacity:1"
         d="m 22.48749,23.685981 h 5.880089 V 27.14899 H 22.48749 Z m 0,0"
         transform="matrix(2.834646,0,0,2.834646,134.32234,60.444575)"
         id="path456" />
      <path
         style="fill:#ffffff;fill-opacity:1;fill-rule:nonzero;stroke:#000000;stroke-width:0.264583;stroke-linecap:butt;stroke-linejoin:miter;stroke-miterlimit:4;stroke-opacity:1"
         d="m 28.367579,23.685981 h 5.881467 v 3.463009 h -5.881467 z m 0,0"
         transform="matrix(2.834646,0,0,2.834646,134.32234,60.444575)"
         id="path458" />
      <path
         style="fill:#ffffff;fill-opacity:1;fill-rule:nonzero;stroke:#000000;stroke-width:0.264583;stroke-linecap:butt;stroke-linejoin:miter;stroke-miterlimit:4;stroke-opacity:1"
         d="m 34.249046,23.685981 h 5.880089 v 3.463009 h -5.880089 z m 0,0"
         transform="matrix(2.834646,0,0,2.834646,134.32234,60.444575)"
         id="path460" />
      <path
         style="fill:#ffffff;fill-opacity:1;fill-rule:nonzero;stroke:#000000;stroke-width:0.264583;stroke-linecap:butt;stroke-linejoin:miter;stroke-miterlimit:4;stroke-opacity:1"
         d="m 40.129135,-27.14899 h 5.881467 v 3.463009 h -5.881467 z m 0,0"
         transform="matrix(2.834646,0,0,-2.834646,134.32234,60.444575)"
         id="path462" />
      <path
         style="fill:#ffffff;fill-opacity:1;fill-rule:nonzero;stroke:#000000;stroke-width:0.264583;stroke-linecap:butt;stroke-linejoin:miter;stroke-miterlimit:4;stroke-opacity:1"
         d="m 46.010602,23.685981 h 5.881467 v 3.463009 h -5.881467 z m 0,0"
         transform="matrix(2.834646,0,0,2.834646,134.32234,60.444575)"
         id="path464" />
      <path
         style="fill:#ffffff;fill-opacity:1;fill-rule:nonzero;stroke:#000000;stroke-width:0.264583;stroke-linecap:butt;stroke-linejoin:miter;stroke-miterlimit:4;stroke-opacity:1"
         d="m 46.010602,20.224349 h 5.881467 v 3.461632 h -5.881467 z m 0,0"
         transform="matrix(2.834646,0,0,2.834646,134.32234,60.444575)"
         id="path466" />
      <path
         style="fill:#ffffff;fill-opacity:1;fill-rule:nonzero;stroke:#000000;stroke-width:0.264583;stroke-linecap:butt;stroke-linejoin:miter;stroke-miterlimit:4;stroke-opacity:1"
         d="m 40.129135,20.224349 h 5.881467 v 3.461632 h -5.881467 z m 0,0"
         transform="matrix(2.834646,0,0,2.834646,134.32234,60.444575)"
         id="path468" />
      <path
         style="fill:#ffffff;fill-opacity:1;fill-rule:nonzero;stroke:#000000;stroke-width:0.264583;stroke-linecap:butt;stroke-linejoin:miter;stroke-miterlimit:4;stroke-opacity:1"
         d="m 34.249046,20.224349 h 5.880089 v 3.461632 h -5.880089 z m 0,0"
         transform="matrix(2.834646,0,0,2.834646,134.32234,60.444575)"
         id="path470" />
      <path
         style="fill:#ffffff;fill-opacity:1;fill-rule:nonzero;stroke:#000000;stroke-width:0.264583;stroke-linecap:butt;stroke-linejoin:miter;stroke-miterlimit:4;stroke-opacity:1"
         d="m 28.367579,20.224349 h 5.881467 v 3.461632 h -5.881467 z m 0,0"
         transform="matrix(2.834646,0,0,2.834646,134.32234,60.444575)"
         id="path472" />
      <path
         style="fill:#ffffff;fill-opacity:1;fill-rule:nonzero;stroke:#000000;stroke-width:0.264583;stroke-linecap:butt;stroke-linejoin:miter;stroke-miterlimit:4;stroke-opacity:1"
         d="m 22.48749,20.224349 h 5.880089 v 3.461632 H 22.48749 Z m 0,0"
         transform="matrix(2.834646,0,0,2.834646,134.32234,60.444575)"
         id="path474" />
      <path
         style="fill:#ffffff;fill-opacity:1;fill-rule:nonzero;stroke:#000000;stroke-width:0.264583;stroke-linecap:butt;stroke-linejoin:miter;stroke-miterlimit:4;stroke-opacity:1"
         d="m 16.606023,20.224349 h 5.881467 v 3.461632 h -5.881467 z m 0,0"
         transform="matrix(2.834646,0,0,2.834646,134.32234,60.444575)"
         id="path476" />
    </g>
    <g
       class="regalgruppe"
       id="g645"
       transform="translate(-2.3792707,-26.12694)">
      <path
         style="fill:#ffffff;fill-opacity:1;fill-rule:nonzero;stroke:#000000;stroke-width:0.264583;stroke-linecap:butt;stroke-linejoin:miter;stroke-miterlimit:4;stroke-opacity:1"
         d="m 16.606218,23.686689 h 5.881467 v 3.461632 h -5.881467 z m 0,0"
         transform="matrix(2.834646,0,0,2.834646,-1.654774,60.79413)"
         id="path478" />
      <path
         style="fill:#ffffff;fill-opacity:1;fill-rule:nonzero;stroke:#000000;stroke-width:0.264583;stroke-linecap:butt;stroke-linejoin:miter;stroke-miterlimit:4;stroke-opacity:1"
         d="m 22.487685,23.686689 h 5.880089 v 3.461632 h -5.880089 z m 0,0"
         transform="matrix(2.834646,0,0,2.834646,-1.654774,60.79413)"
         id="path480" />
      <path
         style="fill:#ffffff;fill-opacity:1;fill-rule:nonzero;stroke:#000000;stroke-width:0.264583;stroke-linecap:butt;stroke-linejoin:miter;stroke-miterlimit:4;stroke-opacity:1"
         d="m 28.367774,23.686689 h 5.881467 v 3.461632 h -5.881467 z m 0,0"
         transform="matrix(2.834646,0,0,2.834646,-1.654774,60.79413)"
         id="path482" />
      <path
         style="fill:#ffffff;fill-opacity:1;fill-rule:nonzero;stroke:#000000;stroke-width:0.264583;stroke-linecap:butt;stroke-linejoin:miter;stroke-miterlimit:4;stroke-opacity:1"
         d="m 34.249241,23.686689 h 5.880089 v 3.461632 h -5.880089 z m 0,0"
         transform="matrix(2.834646,0,0,2.834646,-1.654774,60.79413)"
         id="path484" />
      <path
         style="fill:#ffffff;fill-opacity:1;fill-rule:nonzero;stroke:#000000;stroke-width:0.264583;stroke-linecap:butt;stroke-linejoin:miter;stroke-miterlimit:4;stroke-opacity:1"
         d="m 40.12933,-27.148321 h 5.881467 v 3.461632 H 40.12933 Z m 0,0"
         transform="matrix(2.834646,0,0,-2.834646,-1.654774,60.79413)"
         id="path486" />
      <path
         style="fill:#ffffff;fill-opacity:1;fill-rule:nonzero;stroke:#000000;stroke-width:0.264583;stroke-linecap:butt;stroke-linejoin:miter;stroke-miterlimit:4;stroke-opacity:1"
         d="m 46.010797,23.686689 h 5.880089 v 3.461632 h -5.880089 z m 0,0"
         transform="matrix(2.834646,0,0,2.834646,-1.654774,60.79413)"
         id="path488" />
      <path
         style="fill:#ffffff;fill-opacity:1;fill-rule:nonzero;stroke:#000000;stroke-width:0.264583;stroke-linecap:butt;stroke-linejoin:miter;stroke-miterlimit:4;stroke-opacity:1"
         d="m 46.010797,20.225057 h 5.880089 v 3.461632 h -5.880089 z m 0,0"
         transform="matrix(2.834646,0,0,2.834646,-1.654774,60.79413)"
         id="path490" />
      <path
         style="fill:#ffffff;fill-opacity:1;fill-rule:nonzero;stroke:#000000;stroke-width:0.264583;stroke-linecap:butt;stroke-linejoin:miter;stroke-miterlimit:4;stroke-opacity:1"
         d="m 40.12933,20.225057 h 5.881467 v 3.461632 H 40.12933 Z m 0,0"
         transform="matrix(2.834646,0,0,2.834646,-1.654774,60.79413)"
         id="path492" />
      <path
         style="fill:#ffffff;fill-opacity:1;fill-rule:nonzero;stroke:#000000;stroke-width:0.264583;stroke-linecap:butt;stroke-linejoin:miter;stroke-miterlimit:4;stroke-opacity:1"
         d="m 34.249241,20.225057 h 5.880089 v 3.461632 h -5.880089 z m 0,0"
         transform="matrix(2.834646,0,0,2.834646,-1.654774,60.79413)"
         id="path494" />
      <path
         style="fill:#ffffff;fill-opacity:1;fill-rule:nonzero;stroke:#000000;stroke-width:0.264583;stroke-linecap:butt;stroke-linejoin:miter;stroke-miterlimit:4;stroke-opacity:1"
         d="m 28.367774,20.225057 h 5.881467 v 3.461632 h -5.881467 z m 0,0"
         transform="matrix(2.834646,0,0,2.834646,-1.654774,60.79413)"
         id="path496" />
      <path
         style="fill:#ffffff;fill-opacity:1;fill-rule:nonzero;stroke:#000000;stroke-width:0.264583;stroke-linecap:butt;stroke-linejoin:miter;stroke-miterlimit:4;stroke-opacity:1"
         d="m 22.487685,20.225057 h 5.880089 v 3.461632 h -5.880089 z m 0,0"
         transform="matrix(2.834646,0,0,2.834646,-1.654774,60.79413)"
         id="path498" />
      <path
         style="fill:#ffffff;fill-opacity:1;fill-rule:nonzero;stroke:#000000;stroke-width:0.264583;stroke-linecap:butt;stroke-linejoin:miter;stroke-miterlimit:4;stroke-opacity:1"
         d="m 16.606218,20.225057 h 5.881467 v 3.461632 h -5.881467 z m 0,0"
         transform="matrix(2.834646,0,0,2.834646,-1.654774,60.79413)"
         id="path500" />
    </g>
    <g
       class="regalgruppe"
       id="g702"
       transform="translate(-2.3792707,-26.12694)">
      <path
         style="fill:#ffffff;fill-opacity:1;fill-rule:nonzero;stroke:#000000;stroke-width:0.264583;stroke-linecap:butt;stroke-linejoin:miter;stroke-miterlimit:4;stroke-opacity:1"
         d="m 16.606693,23.68661 h 5.880089 v 3.461632 h -5.880089 z m 0,0"
         transform="matrix(2.834646,0,0,2.834646,133.97278,21.294353)"
         id="path502" />
      <path
         style="fill:#ffffff;fill-opacity:1;fill-rule:nonzero;stroke:#000000;stroke-width:0.264583;stroke-linecap:butt;stroke-linejoin:miter;stroke-miterlimit:4;stroke-opacity:1"
         d="m 22.486782,23.68661 h 5.881467 v 3.461632 h -5.881467 z m 0,0"
         transform="matrix(2.834646,0,0,2.834646,133.97278,21.294353)"
         id="path504" />
      <path
         style="fill:#ffffff;fill-opacity:1;fill-rule:nonzero;stroke:#000000;stroke-width:0.264583;stroke-linecap:butt;stroke-linejoin:miter;stroke-miterlimit:4;stroke-opacity:1"
         d="m 28.368249,23.68661 h 5.880089 v 3.461632 h -5.880089 z m 0,0"
         transform="matrix(2.834646,0,0,2.834646,133.97278,21.294353)"
         id="path506" />
      <path
         style="fill:#ffffff;fill-opacity:1;fill-rule:nonzero;stroke:#000000;stroke-width:0.264583;stroke-linecap:butt;stroke-linejoin:miter;stroke-miterlimit:4;stroke-opacity:1"
         d="m 34.248338,23.68661 h 5.881467 v 3.461632 h -5.881467 z m 0,0"
         transform="matrix(2.834646,0,0,2.834646,133.97278,21.294353)"
         id="path508" />
      <path
         style="fill:#ffffff;fill-opacity:1;fill-rule:nonzero;stroke:#000000;stroke-width:0.264583;stroke-linecap:butt;stroke-linejoin:miter;stroke-miterlimit:4;stroke-opacity:1"
         d="m 40.129805,-27.148242 h 5.881467 v 3.461632 h -5.881467 z m 0,0"
         transform="matrix(2.834646,0,0,-2.834646,133.97278,21.294353)"
         id="path510" />
      <path
         style="fill:#ffffff;fill-opacity:1;fill-rule:nonzero;stroke:#000000;stroke-width:0.264583;stroke-linecap:butt;stroke-linejoin:miter;stroke-miterlimit:4;stroke-opacity:1"
         d="m 46.011272,23.68661 h 5.880089 v 3.461632 h -5.880089 z m 0,0"
         transform="matrix(2.834646,0,0,2.834646,133.97278,21.294353)"
         id="path512" />
      <path
         style="fill:#ffffff;fill-opacity:1;fill-rule:nonzero;stroke:#000000;stroke-width:0.264583;stroke-linecap:butt;stroke-linejoin:miter;stroke-miterlimit:4;stroke-opacity:1"
         d="m 46.011272,20.224978 h 5.880089 v 3.461632 h -5.880089 z m 0,0"
         transform="matrix(2.834646,0,0,2.834646,133.97278,21.294353)"
         id="path514" />
      <path
         style="fill:#ffffff;fill-opacity:1;fill-rule:nonzero;stroke:#000000;stroke-width:0.264583;stroke-linecap:butt;stroke-linejoin:miter;stroke-miterlimit:4;stroke-opacity:1"
         d="m 40.129805,20.224978 h 5.881467 v 3.461632 h -5.881467 z m 0,0"
         transform="matrix(2.834646,0,0,2.834646,133.97278,21.294353)"
         id="path516" />
      <path
         style="fill:#ffffff;fill-opacity:1;fill-rule:nonzero;stroke:#000000;stroke-width:0.264583;stroke-linecap:butt;stroke-linejoin:miter;stroke-miterlimit:4;stroke-opacity:1"
         d="m 34.248338,20.224978 h 5.881467 v 3.461632 h -5.881467 z m 0,0"
         transform="matrix(2.834646,0,0,2.834646,133.97278,21.294353)"
         id="path518" />
      <path
         style="fill:#ffffff;fill-opacity:1;fill-rule:nonzero;stroke:#000000;stroke-width:0.264583;stroke-linecap:butt;stroke-linejoin:miter;stroke-miterlimit:4;stroke-opacity:1"
         d="m 28.368249,20.224978 h 5.880089 v 3.461632 h -5.880089 z m 0,0"
         transform="matrix(2.834646,0,0,2.834646,133.97278,21.294353)"
         id="path520" />
      <path
         style="fill:#ffffff;fill-opacity:1;fill-rule:nonzero;stroke:#000000;stroke-width:0.264583;stroke-linecap:butt;stroke-linejoin:miter;stroke-miterlimit:4;stroke-opacity:1"
         d="m 22.486782,20.224978 h 5.881467 v 3.461632 h -5.881467 z m 0,0"
         transform="matrix(2.834646,0,0,2.834646,133.97278,21.294353)"
         id="path522" />
      <path
         style="fill:#ffffff;fill-opacity:1;fill-rule:nonzero;stroke:#000000;stroke-width:0.264583;stroke-linecap:butt;stroke-linejoin:miter;stroke-miterlimit:4;stroke-opacity:1"
         d="m 16.606693,20.224978 h 5.880089 v 3.461632 h -5.880089 z m 0,0"
         transform="matrix(2.834646,0,0,2.834646,133.97278,21.294353)"
         id="path524" />
    </g>
    <g
       class="regalgruppe"
       id="g631"
       transform="translate(-2.3792707,-26.12694)">
      <path
         style="fill:#ffffff;fill-opacity:1;fill-rule:nonzero;stroke:#000000;stroke-width:0.264583;stroke-linecap:butt;stroke-linejoin:miter;stroke-miterlimit:4;stroke-opacity:1"
         d="m 16.606887,23.687319 h 5.880089 v 3.461632 h -5.880089 z m 0,0"
         transform="matrix(2.834646,0,0,2.834646,-2.004329,21.643908)"
         id="path526" />
      <path
         style="fill:#ffffff;fill-opacity:1;fill-rule:nonzero;stroke:#000000;stroke-width:0.264583;stroke-linecap:butt;stroke-linejoin:miter;stroke-miterlimit:4;stroke-opacity:1"
         d="m 22.486976,23.687319 h 5.881467 v 3.461632 h -5.881467 z m 0,0"
         transform="matrix(2.834646,0,0,2.834646,-2.004329,21.643908)"
         id="path528" />
      <path
         style="fill:#ffffff;fill-opacity:1;fill-rule:nonzero;stroke:#000000;stroke-width:0.264583;stroke-linecap:butt;stroke-linejoin:miter;stroke-miterlimit:4;stroke-opacity:1"
         d="m 28.368443,23.687319 h 5.880089 v 3.461632 h -5.880089 z m 0,0"
         transform="matrix(2.834646,0,0,2.834646,-2.004329,21.643908)"
         id="path530" />
      <path
         style="fill:#ffffff;fill-opacity:1;fill-rule:nonzero;stroke:#000000;stroke-width:0.264583;stroke-linecap:butt;stroke-linejoin:miter;stroke-miterlimit:4;stroke-opacity:1"
         d="m 34.248532,23.687319 h 5.881467 v 3.461632 h -5.881467 z m 0,0"
         transform="matrix(2.834646,0,0,2.834646,-2.004329,21.643908)"
         id="path532" />
      <path
         style="fill:#ffffff;fill-opacity:1;fill-rule:nonzero;stroke:#000000;stroke-width:0.264583;stroke-linecap:butt;stroke-linejoin:miter;stroke-miterlimit:4;stroke-opacity:1"
         d="m 40.129999,-27.148951 h 5.880089 v 3.461632 h -5.880089 z m 0,0"
         transform="matrix(2.834646,0,0,-2.834646,-2.004329,21.643908)"
         id="path534" />
      <path
         style="fill:#ffffff;fill-opacity:1;fill-rule:nonzero;stroke:#000000;stroke-width:0.264583;stroke-linecap:butt;stroke-linejoin:miter;stroke-miterlimit:4;stroke-opacity:1"
         d="m 46.010088,23.687319 h 5.881467 v 3.461632 h -5.881467 z m 0,0"
         transform="matrix(2.834646,0,0,2.834646,-2.004329,21.643908)"
         id="path536" />
      <path
         style="fill:#ffffff;fill-opacity:1;fill-rule:nonzero;stroke:#000000;stroke-width:0.264583;stroke-linecap:butt;stroke-linejoin:miter;stroke-miterlimit:4;stroke-opacity:1"
         d="m 46.010088,20.224309 h 5.881467 v 3.46301 h -5.881467 z m 0,0"
         transform="matrix(2.834646,0,0,2.834646,-2.004329,21.643908)"
         id="path538" />
      <path
         style="fill:#ffffff;fill-opacity:1;fill-rule:nonzero;stroke:#000000;stroke-width:0.264583;stroke-linecap:butt;stroke-linejoin:miter;stroke-miterlimit:4;stroke-opacity:1"
         d="m 40.129999,20.224309 h 5.880089 v 3.46301 h -5.880089 z m 0,0"
         transform="matrix(2.834646,0,0,2.834646,-2.004329,21.643908)"
         id="path540" />
      <path
         style="fill:#ffffff;fill-opacity:1;fill-rule:nonzero;stroke:#000000;stroke-width:0.264583;stroke-linecap:butt;stroke-linejoin:miter;stroke-miterlimit:4;stroke-opacity:1"
         d="m 34.248532,20.224309 h 5.881467 v 3.46301 h -5.881467 z m 0,0"
         transform="matrix(2.834646,0,0,2.834646,-2.004329,21.643908)"
         id="path542" />
      <path
         style="fill:#ffffff;fill-opacity:1;fill-rule:nonzero;stroke:#000000;stroke-width:0.264583;stroke-linecap:butt;stroke-linejoin:miter;stroke-miterlimit:4;stroke-opacity:1"
         d="m 28.368443,20.224309 h 5.880089 v 3.46301 h -5.880089 z m 0,0"
         transform="matrix(2.834646,0,0,2.834646,-2.004329,21.643908)"
         id="path544" />
      <path
         style="fill:#ffffff;fill-opacity:1;fill-rule:nonzero;stroke:#000000;stroke-width:0.264583;stroke-linecap:butt;stroke-linejoin:miter;stroke-miterlimit:4;stroke-opacity:1"
         d="m 22.486976,20.224309 h 5.881467 v 3.46301 h -5.881467 z m 0,0"
         transform="matrix(2.834646,0,0,2.834646,-2.004329,21.643908)"
         id="path546" />
      <path
         style="fill:#ffffff;fill-opacity:1;fill-rule:nonzero;stroke:#000000;stroke-width:0.264583;stroke-linecap:butt;stroke-linejoin:miter;stroke-miterlimit:4;stroke-opacity:1"
         d="m 16.606887,20.224309 h 5.880089 v 3.46301 h -5.880089 z m 0,0"
         transform="matrix(2.834646,0,0,2.834646,-2.004329,21.643908)"
         id="path548" />
    </g>
    <g
       class="regalgruppe"
       id="g673"
       transform="translate(-2.3792707,-26.12694)">
      <path
         style="fill:#ffffff;fill-opacity:1;fill-rule:nonzero;stroke:#000000;stroke-width:0.264583;stroke-linecap:butt;stroke-linejoin:miter;stroke-miterlimit:4;stroke-opacity:1"
         d="m 16.605962,23.686014 h 5.881467 v 3.46301 h -5.881467 z m 0,0"
         transform="matrix(2.834646,0,0,2.834646,134.68579,-14.21177)"
         id="path550" />
      <path
         style="fill:#ffffff;fill-opacity:1;fill-rule:nonzero;stroke:#000000;stroke-width:0.264583;stroke-linecap:butt;stroke-linejoin:miter;stroke-miterlimit:4;stroke-opacity:1"
         d="m 22.487429,23.686014 h 5.880089 v 3.46301 h -5.880089 z m 0,0"
         transform="matrix(2.834646,0,0,2.834646,134.68579,-14.21177)"
         id="path552" />
      <path
         style="fill:#ffffff;fill-opacity:1;fill-rule:nonzero;stroke:#000000;stroke-width:0.264583;stroke-linecap:butt;stroke-linejoin:miter;stroke-miterlimit:4;stroke-opacity:1"
         d="m 28.367518,23.686014 h 5.881467 v 3.46301 h -5.881467 z m 0,0"
         transform="matrix(2.834646,0,0,2.834646,134.68579,-14.21177)"
         id="path554" />
      <path
         style="fill:#ffffff;fill-opacity:1;fill-rule:nonzero;stroke:#000000;stroke-width:0.264583;stroke-linecap:butt;stroke-linejoin:miter;stroke-miterlimit:4;stroke-opacity:1"
         d="m 34.248985,23.686014 h 5.880089 v 3.46301 h -5.880089 z m 0,0"
         transform="matrix(2.834646,0,0,2.834646,134.68579,-14.21177)"
         id="path556" />
      <path
         style="fill:#ffffff;fill-opacity:1;fill-rule:nonzero;stroke:#000000;stroke-width:0.264583;stroke-linecap:butt;stroke-linejoin:miter;stroke-miterlimit:4;stroke-opacity:1"
         d="m 40.129074,-27.149024 h 5.881467 v 3.46301 h -5.881467 z m 0,0"
         transform="matrix(2.834646,0,0,-2.834646,134.68579,-14.21177)"
         id="path558" />
      <path
         style="fill:#ffffff;fill-opacity:1;fill-rule:nonzero;stroke:#000000;stroke-width:0.264583;stroke-linecap:butt;stroke-linejoin:miter;stroke-miterlimit:4;stroke-opacity:1"
         d="m 46.010541,23.686014 h 5.881467 v 3.46301 h -5.881467 z m 0,0"
         transform="matrix(2.834646,0,0,2.834646,134.68579,-14.21177)"
         id="path560" />
      <path
         style="fill:#ffffff;fill-opacity:1;fill-rule:nonzero;stroke:#000000;stroke-width:0.264583;stroke-linecap:butt;stroke-linejoin:miter;stroke-miterlimit:4;stroke-opacity:1"
         d="m 46.010541,20.224382 h 5.881467 v 3.461632 h -5.881467 z m 0,0"
         transform="matrix(2.834646,0,0,2.834646,134.68579,-14.21177)"
         id="path562" />
      <path
         style="fill:#ffffff;fill-opacity:1;fill-rule:nonzero;stroke:#000000;stroke-width:0.264583;stroke-linecap:butt;stroke-linejoin:miter;stroke-miterlimit:4;stroke-opacity:1"
         d="m 40.129074,20.224382 h 5.881467 v 3.461632 h -5.881467 z m 0,0"
         transform="matrix(2.834646,0,0,2.834646,134.68579,-14.21177)"
         id="path564" />
      <path
         style="fill:#ffffff;fill-opacity:1;fill-rule:nonzero;stroke:#000000;stroke-width:0.264583;stroke-linecap:butt;stroke-linejoin:miter;stroke-miterlimit:4;stroke-opacity:1"
         d="m 34.248985,20.224382 h 5.880089 v 3.461632 h -5.880089 z m 0,0"
         transform="matrix(2.834646,0,0,2.834646,134.68579,-14.21177)"
         id="path566" />
      <path
         style="fill:#ffffff;fill-opacity:1;fill-rule:nonzero;stroke:#000000;stroke-width:0.264583;stroke-linecap:butt;stroke-linejoin:miter;stroke-miterlimit:4;stroke-opacity:1"
         d="m 28.367518,20.224382 h 5.881467 v 3.461632 h -5.881467 z m 0,0"
         transform="matrix(2.834646,0,0,2.834646,134.68579,-14.21177)"
         id="path568" />
      <path
         style="fill:#ffffff;fill-opacity:1;fill-rule:nonzero;stroke:#000000;stroke-width:0.264583;stroke-linecap:butt;stroke-linejoin:miter;stroke-miterlimit:4;stroke-opacity:1"
         d="m 22.487429,20.224382 h 5.880089 v 3.461632 h -5.880089 z m 0,0"
         transform="matrix(2.834646,0,0,2.834646,134.68579,-14.21177)"
         id="path570" />
      <path
         style="fill:#ffffff;fill-opacity:1;fill-rule:nonzero;stroke:#000000;stroke-width:0.264583;stroke-linecap:butt;stroke-linejoin:miter;stroke-miterlimit:4;stroke-opacity:1"
         d="m 16.605962,20.224382 h 5.881467 v 3.461632 h -5.881467 z m 0,0"
         transform="matrix(2.834646,0,0,2.834646,134.68579,-14.21177)"
         id="path572" />
    </g>
    <g
       class="regalgruppe"
       id="g617"
       transform="translate(-2.3792707,-26.12694)">
      <path
         style="fill:#ffffff;fill-opacity:1;fill-rule:nonzero;stroke:#000000;stroke-width:0.264583;stroke-linecap:butt;stroke-linejoin:miter;stroke-miterlimit:4;stroke-opacity:1"
         d="m 16.606201,23.685995 h 5.881467 v 3.46301 h -5.881467 z m 0,0"
         transform="matrix(2.834646,0,0,2.834646,-1.232852,-14.547653)"
         id="path574" />
      <path
         style="fill:#ffffff;fill-opacity:1;fill-rule:nonzero;stroke:#000000;stroke-width:0.264583;stroke-linecap:butt;stroke-linejoin:miter;stroke-miterlimit:4;stroke-opacity:1"
         d="m 22.487668,23.685995 h 5.880089 v 3.46301 h -5.880089 z m 0,0"
         transform="matrix(2.834646,0,0,2.834646,-1.232852,-14.547653)"
         id="path576" />
      <path
         style="fill:#ffffff;fill-opacity:1;fill-rule:nonzero;stroke:#000000;stroke-width:0.264583;stroke-linecap:butt;stroke-linejoin:miter;stroke-miterlimit:4;stroke-opacity:1"
         d="m 28.367757,23.685995 h 5.881467 v 3.46301 h -5.881467 z m 0,0"
         transform="matrix(2.834646,0,0,2.834646,-1.232852,-14.547653)"
         id="path578" />
      <path
         style="fill:#ffffff;fill-opacity:1;fill-rule:nonzero;stroke:#000000;stroke-width:0.264583;stroke-linecap:butt;stroke-linejoin:miter;stroke-miterlimit:4;stroke-opacity:1"
         d="m 34.249224,23.685995 h 5.880089 v 3.46301 h -5.880089 z m 0,0"
         transform="matrix(2.834646,0,0,2.834646,-1.232852,-14.547653)"
         id="path580" />
      <path
         style="fill:#ffffff;fill-opacity:1;fill-rule:nonzero;stroke:#000000;stroke-width:0.264583;stroke-linecap:butt;stroke-linejoin:miter;stroke-miterlimit:4;stroke-opacity:1"
         d="m 40.129313,-27.149005 h 5.881467 v 3.46301 h -5.881467 z m 0,0"
         transform="matrix(2.834646,0,0,-2.834646,-1.232852,-14.547653)"
         id="path582" />
      <path
         style="fill:#ffffff;fill-opacity:1;fill-rule:nonzero;stroke:#000000;stroke-width:0.264583;stroke-linecap:butt;stroke-linejoin:miter;stroke-miterlimit:4;stroke-opacity:1"
         d="m 46.01078,23.685995 h 5.880089 v 3.46301 H 46.01078 Z m 0,0"
         transform="matrix(2.834646,0,0,2.834646,-1.232852,-14.547653)"
         id="path584" />
      <path
         style="fill:#ffffff;fill-opacity:1;fill-rule:nonzero;stroke:#000000;stroke-width:0.264583;stroke-linecap:butt;stroke-linejoin:miter;stroke-miterlimit:4;stroke-opacity:1"
         d="m 46.01078,20.224363 h 5.880089 v 3.461632 H 46.01078 Z m 0,0"
         transform="matrix(2.834646,0,0,2.834646,-1.232852,-14.547653)"
         id="path586" />
      <path
         style="fill:#ffffff;fill-opacity:1;fill-rule:nonzero;stroke:#000000;stroke-width:0.264583;stroke-linecap:butt;stroke-linejoin:miter;stroke-miterlimit:4;stroke-opacity:1"
         d="m 40.129313,20.224363 h 5.881467 v 3.461632 h -5.881467 z m 0,0"
         transform="matrix(2.834646,0,0,2.834646,-1.232852,-14.547653)"
         id="path588" />
      <path
         style="fill:#ffffff;fill-opacity:1;fill-rule:nonzero;stroke:#000000;stroke-width:0.264583;stroke-linecap:butt;stroke-linejoin:miter;stroke-miterlimit:4;stroke-opacity:1"
         d="m 34.249224,20.224363 h 5.880089 v 3.461632 h -5.880089 z m 0,0"
         transform="matrix(2.834646,0,0,2.834646,-1.232852,-14.547653)"
         id="path590" />
      <path
         style="fill:#ffffff;fill-opacity:1;fill-rule:nonzero;stroke:#000000;stroke-width:0.264583;stroke-linecap:butt;stroke-linejoin:miter;stroke-miterlimit:4;stroke-opacity:1"
         d="m 28.367757,20.224363 h 5.881467 v 3.461632 h -5.881467 z m 0,0"
         transform="matrix(2.834646,0,0,2.834646,-1.232852,-14.547653)"
         id="path592" />
      <path
         style="fill:#ffffff;fill-opacity:1;fill-rule:nonzero;stroke:#000000;stroke-width:0.264583;stroke-linecap:butt;stroke-linejoin:miter;stroke-miterlimit:4;stroke-opacity:1"
         d="m 22.487668,20.224363 h 5.880089 v 3.461632 h -5.880089 z m 0,0"
         transform="matrix(2.834646,0,0,2.834646,-1.232852,-14.547653)"
         id="path594" />
      <path
         style="fill:#ffffff;fill-opacity:1;fill-rule:nonzero;stroke:#000000;stroke-width:0.264583;stroke-linecap:butt;stroke-linejoin:miter;stroke-miterlimit:4;stroke-opacity:1"
         d="m 16.606201,20.224363 h 5.881467 v 3.461632 h -5.881467 z m 0,0"
         transform="matrix(2.834646,0,0,2.834646,-1.232852,-14.547653)"
         id="path596" />
    </g>
  </g>
  <!--    <script xlink:href="index.html"></script>
 -->
</svg>
