<?xml version="1.0" encoding="UTF-8"?>
<svg xmlns="http://www.w3.org/2000/svg" xmlns:xlink="http://www.w3.org/1999/xlink" width="595.275591pt" height="841.889764pt" viewBox="0 0 595.275591 841.889764" version="1.2">
<g id="surface132728">
<path style=" stroke:none;fill-rule:nonzero;fill:rgb(100%,100%,100%);fill-opacity:1;" d="M 32.386719 23.433594 L 292.742188 23.433594 L 292.742188 233.644531 L 32.386719 233.644531 Z M 32.386719 23.433594 "/>
<path style="fill-rule:nonzero;fill:rgb(100%,100%,100%);fill-opacity:1;stroke-width:0.264583;stroke-linecap:butt;stroke-linejoin:miter;stroke:rgb(0%,0%,0%);stroke-opacity:1;stroke-miterlimit:4;" d="M 16.606061 23.686388 L 22.487528 23.686388 L 22.487528 27.149398 L 16.606061 27.149398 Z M 16.606061 23.686388 " transform="matrix(2.834646,0,0,2.834646,135.02145,93.302796)"/>
<path style="fill-rule:nonzero;fill:rgb(100%,100%,100%);fill-opacity:1;stroke-width:0.264583;stroke-linecap:butt;stroke-linejoin:miter;stroke:rgb(0%,0%,0%);stroke-opacity:1;stroke-miterlimit:4;" d="M 22.487528 23.686388 L 28.367617 23.686388 L 28.367617 27.149398 L 22.487528 27.149398 Z M 22.487528 23.686388 " transform="matrix(2.834646,0,0,2.834646,135.02145,93.302796)"/>
<path style="fill-rule:nonzero;fill:rgb(100%,100%,100%);fill-opacity:1;stroke-width:0.264583;stroke-linecap:butt;stroke-linejoin:miter;stroke:rgb(0%,0%,0%);stroke-opacity:1;stroke-miterlimit:4;" d="M 28.367617 23.686388 L 34.249084 23.686388 L 34.249084 27.149398 L 28.367617 27.149398 Z M 28.367617 23.686388 " transform="matrix(2.834646,0,0,2.834646,135.02145,93.302796)"/>
<path style="fill-rule:nonzero;fill:rgb(100%,100%,100%);fill-opacity:1;stroke-width:0.264583;stroke-linecap:butt;stroke-linejoin:miter;stroke:rgb(0%,0%,0%);stroke-opacity:1;stroke-miterlimit:4;" d="M 34.249084 23.686388 L 40.129173 23.686388 L 40.129173 27.149398 L 34.249084 27.149398 Z M 34.249084 23.686388 " transform="matrix(2.834646,0,0,2.834646,135.02145,93.302796)"/>
<path style="fill-rule:nonzero;fill:rgb(100%,100%,100%);fill-opacity:1;stroke-width:0.264583;stroke-linecap:butt;stroke-linejoin:miter;stroke:rgb(0%,0%,0%);stroke-opacity:1;stroke-miterlimit:4;" d="M 40.129173 -27.149398 L 46.01064 -27.149398 L 46.01064 -23.686388 L 40.129173 -23.686388 Z M 40.129173 -27.149398 " transform="matrix(2.834646,0,0,-2.834646,135.02145,93.302796)"/>
<path style="fill-rule:nonzero;fill:rgb(100%,100%,100%);fill-opacity:1;stroke-width:0.264583;stroke-linecap:butt;stroke-linejoin:miter;stroke:rgb(0%,0%,0%);stroke-opacity:1;stroke-miterlimit:4;" d="M 46.01064 23.686388 L 51.892107 23.686388 L 51.892107 27.149398 L 46.01064 27.149398 Z M 46.01064 23.686388 " transform="matrix(2.834646,0,0,2.834646,135.02145,93.302796)"/>
<path style="fill-rule:nonzero;fill:rgb(100%,100%,100%);fill-opacity:1;stroke-width:0.264583;stroke-linecap:butt;stroke-linejoin:miter;stroke:rgb(0%,0%,0%);stroke-opacity:1;stroke-miterlimit:4;" d="M 46.01064 20.224756 L 51.892107 20.224756 L 51.892107 23.686388 L 46.01064 23.686388 Z M 46.01064 20.224756 " transform="matrix(2.834646,0,0,2.834646,135.02145,93.302796)"/>
<path style="fill-rule:nonzero;fill:rgb(100%,100%,100%);fill-opacity:1;stroke-width:0.264583;stroke-linecap:butt;stroke-linejoin:miter;stroke:rgb(0%,0%,0%);stroke-opacity:1;stroke-miterlimit:4;" d="M 40.129173 20.224756 L 46.01064 20.224756 L 46.01064 23.686388 L 40.129173 23.686388 Z M 40.129173 20.224756 " transform="matrix(2.834646,0,0,2.834646,135.02145,93.302796)"/>
<path style="fill-rule:nonzero;fill:rgb(100%,100%,100%);fill-opacity:1;stroke-width:0.264583;stroke-linecap:butt;stroke-linejoin:miter;stroke:rgb(0%,0%,0%);stroke-opacity:1;stroke-miterlimit:4;" d="M 34.249084 20.224756 L 40.129173 20.224756 L 40.129173 23.686388 L 34.249084 23.686388 Z M 34.249084 20.224756 " transform="matrix(2.834646,0,0,2.834646,135.02145,93.302796)"/>
<path style="fill-rule:nonzero;fill:rgb(100%,100%,100%);fill-opacity:1;stroke-width:0.264583;stroke-linecap:butt;stroke-linejoin:miter;stroke:rgb(0%,0%,0%);stroke-opacity:1;stroke-miterlimit:4;" d="M 28.367617 20.224756 L 34.249084 20.224756 L 34.249084 23.686388 L 28.367617 23.686388 Z M 28.367617 20.224756 " transform="matrix(2.834646,0,0,2.834646,135.02145,93.302796)"/>
<path style="fill-rule:nonzero;fill:rgb(100%,100%,100%);fill-opacity:1;stroke-width:0.264583;stroke-linecap:butt;stroke-linejoin:miter;stroke:rgb(0%,0%,0%);stroke-opacity:1;stroke-miterlimit:4;" d="M 22.487528 20.224756 L 28.367617 20.224756 L 28.367617 23.686388 L 22.487528 23.686388 Z M 22.487528 20.224756 " transform="matrix(2.834646,0,0,2.834646,135.02145,93.302796)"/>
<path style="fill-rule:nonzero;fill:rgb(100%,100%,100%);fill-opacity:1;stroke-width:0.264583;stroke-linecap:butt;stroke-linejoin:miter;stroke:rgb(0%,0%,0%);stroke-opacity:1;stroke-miterlimit:4;" d="M 16.606061 20.224756 L 22.487528 20.224756 L 22.487528 23.686388 L 16.606061 23.686388 Z M 16.606061 20.224756 " transform="matrix(2.834646,0,0,2.834646,135.02145,93.302796)"/>
<path style="fill-rule:nonzero;fill:rgb(100%,100%,100%);fill-opacity:1;stroke-width:0.264583;stroke-linecap:butt;stroke-linejoin:miter;stroke:rgb(0%,0%,0%);stroke-opacity:1;stroke-miterlimit:4;" d="M 16.606925 23.686426 L 22.487014 23.686426 L 22.487014 27.149436 L 16.606925 27.149436 Z M 16.606925 23.686426 " transform="matrix(2.834646,0,0,2.834646,-1.305218,94.001907)"/>
<path style="fill-rule:nonzero;fill:rgb(100%,100%,100%);fill-opacity:1;stroke-width:0.264583;stroke-linecap:butt;stroke-linejoin:miter;stroke:rgb(0%,0%,0%);stroke-opacity:1;stroke-miterlimit:4;" d="M 22.487014 23.686426 L 28.368481 23.686426 L 28.368481 27.149436 L 22.487014 27.149436 Z M 22.487014 23.686426 " transform="matrix(2.834646,0,0,2.834646,-1.305218,94.001907)"/>
<path style="fill-rule:nonzero;fill:rgb(100%,100%,100%);fill-opacity:1;stroke-width:0.264583;stroke-linecap:butt;stroke-linejoin:miter;stroke:rgb(0%,0%,0%);stroke-opacity:1;stroke-miterlimit:4;" d="M 28.368481 23.686426 L 34.24857 23.686426 L 34.24857 27.149436 L 28.368481 27.149436 Z M 28.368481 23.686426 " transform="matrix(2.834646,0,0,2.834646,-1.305218,94.001907)"/>
<path style="fill-rule:nonzero;fill:rgb(100%,100%,100%);fill-opacity:1;stroke-width:0.264583;stroke-linecap:butt;stroke-linejoin:miter;stroke:rgb(0%,0%,0%);stroke-opacity:1;stroke-miterlimit:4;" d="M 34.24857 23.686426 L 40.130037 23.686426 L 40.130037 27.149436 L 34.24857 27.149436 Z M 34.24857 23.686426 " transform="matrix(2.834646,0,0,2.834646,-1.305218,94.001907)"/>
<path style="fill-rule:nonzero;fill:rgb(100%,100%,100%);fill-opacity:1;stroke-width:0.264583;stroke-linecap:butt;stroke-linejoin:miter;stroke:rgb(0%,0%,0%);stroke-opacity:1;stroke-miterlimit:4;" d="M 40.130037 -27.149436 L 46.010126 -27.149436 L 46.010126 -23.686426 L 40.130037 -23.686426 Z M 40.130037 -27.149436 " transform="matrix(2.834646,0,0,-2.834646,-1.305218,94.001907)"/>
<path style="fill-rule:nonzero;fill:rgb(100%,100%,100%);fill-opacity:1;stroke-width:0.264583;stroke-linecap:butt;stroke-linejoin:miter;stroke:rgb(0%,0%,0%);stroke-opacity:1;stroke-miterlimit:4;" d="M 46.010126 23.686426 L 51.891593 23.686426 L 51.891593 27.149436 L 46.010126 27.149436 Z M 46.010126 23.686426 " transform="matrix(2.834646,0,0,2.834646,-1.305218,94.001907)"/>
<path style="fill-rule:nonzero;fill:rgb(100%,100%,100%);fill-opacity:1;stroke-width:0.264583;stroke-linecap:butt;stroke-linejoin:miter;stroke:rgb(0%,0%,0%);stroke-opacity:1;stroke-miterlimit:4;" d="M 46.010126 20.224794 L 51.891593 20.224794 L 51.891593 23.686426 L 46.010126 23.686426 Z M 46.010126 20.224794 " transform="matrix(2.834646,0,0,2.834646,-1.305218,94.001907)"/>
<path style="fill-rule:nonzero;fill:rgb(100%,100%,100%);fill-opacity:1;stroke-width:0.264583;stroke-linecap:butt;stroke-linejoin:miter;stroke:rgb(0%,0%,0%);stroke-opacity:1;stroke-miterlimit:4;" d="M 40.130037 20.224794 L 46.010126 20.224794 L 46.010126 23.686426 L 40.130037 23.686426 Z M 40.130037 20.224794 " transform="matrix(2.834646,0,0,2.834646,-1.305218,94.001907)"/>
<path style="fill-rule:nonzero;fill:rgb(100%,100%,100%);fill-opacity:1;stroke-width:0.264583;stroke-linecap:butt;stroke-linejoin:miter;stroke:rgb(0%,0%,0%);stroke-opacity:1;stroke-miterlimit:4;" d="M 34.24857 20.224794 L 40.130037 20.224794 L 40.130037 23.686426 L 34.24857 23.686426 Z M 34.24857 20.224794 " transform="matrix(2.834646,0,0,2.834646,-1.305218,94.001907)"/>
<path style="fill-rule:nonzero;fill:rgb(100%,100%,100%);fill-opacity:1;stroke-width:0.264583;stroke-linecap:butt;stroke-linejoin:miter;stroke:rgb(0%,0%,0%);stroke-opacity:1;stroke-miterlimit:4;" d="M 28.368481 20.224794 L 34.24857 20.224794 L 34.24857 23.686426 L 28.368481 23.686426 Z M 28.368481 20.224794 " transform="matrix(2.834646,0,0,2.834646,-1.305218,94.001907)"/>
<path style="fill-rule:nonzero;fill:rgb(100%,100%,100%);fill-opacity:1;stroke-width:0.264583;stroke-linecap:butt;stroke-linejoin:miter;stroke:rgb(0%,0%,0%);stroke-opacity:1;stroke-miterlimit:4;" d="M 22.487014 20.224794 L 28.368481 20.224794 L 28.368481 23.686426 L 22.487014 23.686426 Z M 22.487014 20.224794 " transform="matrix(2.834646,0,0,2.834646,-1.305218,94.001907)"/>
<path style="fill-rule:nonzero;fill:rgb(100%,100%,100%);fill-opacity:1;stroke-width:0.264583;stroke-linecap:butt;stroke-linejoin:miter;stroke:rgb(0%,0%,0%);stroke-opacity:1;stroke-miterlimit:4;" d="M 16.606925 20.224794 L 22.487014 20.224794 L 22.487014 23.686426 L 16.606925 23.686426 Z M 16.606925 20.224794 " transform="matrix(2.834646,0,0,2.834646,-1.305218,94.001907)"/>
<path style="fill-rule:nonzero;fill:rgb(100%,100%,100%);fill-opacity:1;stroke-width:0.264583;stroke-linecap:butt;stroke-linejoin:miter;stroke:rgb(0%,0%,0%);stroke-opacity:1;stroke-miterlimit:4;" d="M 16.606023 23.685981 L 22.48749 23.685981 L 22.48749 27.14899 L 16.606023 27.14899 Z M 16.606023 23.685981 " transform="matrix(2.834646,0,0,2.834646,134.322341,60.444575)"/>
<path style="fill-rule:nonzero;fill:rgb(100%,100%,100%);fill-opacity:1;stroke-width:0.264583;stroke-linecap:butt;stroke-linejoin:miter;stroke:rgb(0%,0%,0%);stroke-opacity:1;stroke-miterlimit:4;" d="M 22.48749 23.685981 L 28.367579 23.685981 L 28.367579 27.14899 L 22.48749 27.14899 Z M 22.48749 23.685981 " transform="matrix(2.834646,0,0,2.834646,134.322341,60.444575)"/>
<path style="fill-rule:nonzero;fill:rgb(100%,100%,100%);fill-opacity:1;stroke-width:0.264583;stroke-linecap:butt;stroke-linejoin:miter;stroke:rgb(0%,0%,0%);stroke-opacity:1;stroke-miterlimit:4;" d="M 28.367579 23.685981 L 34.249046 23.685981 L 34.249046 27.14899 L 28.367579 27.14899 Z M 28.367579 23.685981 " transform="matrix(2.834646,0,0,2.834646,134.322341,60.444575)"/>
<path style="fill-rule:nonzero;fill:rgb(100%,100%,100%);fill-opacity:1;stroke-width:0.264583;stroke-linecap:butt;stroke-linejoin:miter;stroke:rgb(0%,0%,0%);stroke-opacity:1;stroke-miterlimit:4;" d="M 34.249046 23.685981 L 40.129135 23.685981 L 40.129135 27.14899 L 34.249046 27.14899 Z M 34.249046 23.685981 " transform="matrix(2.834646,0,0,2.834646,134.322341,60.444575)"/>
<path style="fill-rule:nonzero;fill:rgb(100%,100%,100%);fill-opacity:1;stroke-width:0.264583;stroke-linecap:butt;stroke-linejoin:miter;stroke:rgb(0%,0%,0%);stroke-opacity:1;stroke-miterlimit:4;" d="M 40.129135 -27.14899 L 46.010602 -27.14899 L 46.010602 -23.685981 L 40.129135 -23.685981 Z M 40.129135 -27.14899 " transform="matrix(2.834646,0,0,-2.834646,134.322341,60.444575)"/>
<path style="fill-rule:nonzero;fill:rgb(100%,100%,100%);fill-opacity:1;stroke-width:0.264583;stroke-linecap:butt;stroke-linejoin:miter;stroke:rgb(0%,0%,0%);stroke-opacity:1;stroke-miterlimit:4;" d="M 46.010602 23.685981 L 51.892069 23.685981 L 51.892069 27.14899 L 46.010602 27.14899 Z M 46.010602 23.685981 " transform="matrix(2.834646,0,0,2.834646,134.322341,60.444575)"/>
<path style="fill-rule:nonzero;fill:rgb(100%,100%,100%);fill-opacity:1;stroke-width:0.264583;stroke-linecap:butt;stroke-linejoin:miter;stroke:rgb(0%,0%,0%);stroke-opacity:1;stroke-miterlimit:4;" d="M 46.010602 20.224349 L 51.892069 20.224349 L 51.892069 23.685981 L 46.010602 23.685981 Z M 46.010602 20.224349 " transform="matrix(2.834646,0,0,2.834646,134.322341,60.444575)"/>
<path style="fill-rule:nonzero;fill:rgb(100%,100%,100%);fill-opacity:1;stroke-width:0.264583;stroke-linecap:butt;stroke-linejoin:miter;stroke:rgb(0%,0%,0%);stroke-opacity:1;stroke-miterlimit:4;" d="M 40.129135 20.224349 L 46.010602 20.224349 L 46.010602 23.685981 L 40.129135 23.685981 Z M 40.129135 20.224349 " transform="matrix(2.834646,0,0,2.834646,134.322341,60.444575)"/>
<path style="fill-rule:nonzero;fill:rgb(100%,100%,100%);fill-opacity:1;stroke-width:0.264583;stroke-linecap:butt;stroke-linejoin:miter;stroke:rgb(0%,0%,0%);stroke-opacity:1;stroke-miterlimit:4;" d="M 34.249046 20.224349 L 40.129135 20.224349 L 40.129135 23.685981 L 34.249046 23.685981 Z M 34.249046 20.224349 " transform="matrix(2.834646,0,0,2.834646,134.322341,60.444575)"/>
<path style="fill-rule:nonzero;fill:rgb(100%,100%,100%);fill-opacity:1;stroke-width:0.264583;stroke-linecap:butt;stroke-linejoin:miter;stroke:rgb(0%,0%,0%);stroke-opacity:1;stroke-miterlimit:4;" d="M 28.367579 20.224349 L 34.249046 20.224349 L 34.249046 23.685981 L 28.367579 23.685981 Z M 28.367579 20.224349 " transform="matrix(2.834646,0,0,2.834646,134.322341,60.444575)"/>
<path style="fill-rule:nonzero;fill:rgb(100%,100%,100%);fill-opacity:1;stroke-width:0.264583;stroke-linecap:butt;stroke-linejoin:miter;stroke:rgb(0%,0%,0%);stroke-opacity:1;stroke-miterlimit:4;" d="M 22.48749 20.224349 L 28.367579 20.224349 L 28.367579 23.685981 L 22.48749 23.685981 Z M 22.48749 20.224349 " transform="matrix(2.834646,0,0,2.834646,134.322341,60.444575)"/>
<path style="fill-rule:nonzero;fill:rgb(100%,100%,100%);fill-opacity:1;stroke-width:0.264583;stroke-linecap:butt;stroke-linejoin:miter;stroke:rgb(0%,0%,0%);stroke-opacity:1;stroke-miterlimit:4;" d="M 16.606023 20.224349 L 22.48749 20.224349 L 22.48749 23.685981 L 16.606023 23.685981 Z M 16.606023 20.224349 " transform="matrix(2.834646,0,0,2.834646,134.322341,60.444575)"/>
<path style="fill-rule:nonzero;fill:rgb(100%,100%,100%);fill-opacity:1;stroke-width:0.264583;stroke-linecap:butt;stroke-linejoin:miter;stroke:rgb(0%,0%,0%);stroke-opacity:1;stroke-miterlimit:4;" d="M 16.606218 23.686689 L 22.487685 23.686689 L 22.487685 27.148321 L 16.606218 27.148321 Z M 16.606218 23.686689 " transform="matrix(2.834646,0,0,2.834646,-1.654774,60.79413)"/>
<path style="fill-rule:nonzero;fill:rgb(100%,100%,100%);fill-opacity:1;stroke-width:0.264583;stroke-linecap:butt;stroke-linejoin:miter;stroke:rgb(0%,0%,0%);stroke-opacity:1;stroke-miterlimit:4;" d="M 22.487685 23.686689 L 28.367774 23.686689 L 28.367774 27.148321 L 22.487685 27.148321 Z M 22.487685 23.686689 " transform="matrix(2.834646,0,0,2.834646,-1.654774,60.79413)"/>
<path style="fill-rule:nonzero;fill:rgb(100%,100%,100%);fill-opacity:1;stroke-width:0.264583;stroke-linecap:butt;stroke-linejoin:miter;stroke:rgb(0%,0%,0%);stroke-opacity:1;stroke-miterlimit:4;" d="M 28.367774 23.686689 L 34.249241 23.686689 L 34.249241 27.148321 L 28.367774 27.148321 Z M 28.367774 23.686689 " transform="matrix(2.834646,0,0,2.834646,-1.654774,60.79413)"/>
<path style="fill-rule:nonzero;fill:rgb(100%,100%,100%);fill-opacity:1;stroke-width:0.264583;stroke-linecap:butt;stroke-linejoin:miter;stroke:rgb(0%,0%,0%);stroke-opacity:1;stroke-miterlimit:4;" d="M 34.249241 23.686689 L 40.12933 23.686689 L 40.12933 27.148321 L 34.249241 27.148321 Z M 34.249241 23.686689 " transform="matrix(2.834646,0,0,2.834646,-1.654774,60.79413)"/>
<path style="fill-rule:nonzero;fill:rgb(100%,100%,100%);fill-opacity:1;stroke-width:0.264583;stroke-linecap:butt;stroke-linejoin:miter;stroke:rgb(0%,0%,0%);stroke-opacity:1;stroke-miterlimit:4;" d="M 40.12933 -27.148321 L 46.010797 -27.148321 L 46.010797 -23.686689 L 40.12933 -23.686689 Z M 40.12933 -27.148321 " transform="matrix(2.834646,0,0,-2.834646,-1.654774,60.79413)"/>
<path style="fill-rule:nonzero;fill:rgb(100%,100%,100%);fill-opacity:1;stroke-width:0.264583;stroke-linecap:butt;stroke-linejoin:miter;stroke:rgb(0%,0%,0%);stroke-opacity:1;stroke-miterlimit:4;" d="M 46.010797 23.686689 L 51.890886 23.686689 L 51.890886 27.148321 L 46.010797 27.148321 Z M 46.010797 23.686689 " transform="matrix(2.834646,0,0,2.834646,-1.654774,60.79413)"/>
<path style="fill-rule:nonzero;fill:rgb(100%,100%,100%);fill-opacity:1;stroke-width:0.264583;stroke-linecap:butt;stroke-linejoin:miter;stroke:rgb(0%,0%,0%);stroke-opacity:1;stroke-miterlimit:4;" d="M 46.010797 20.225057 L 51.890886 20.225057 L 51.890886 23.686689 L 46.010797 23.686689 Z M 46.010797 20.225057 " transform="matrix(2.834646,0,0,2.834646,-1.654774,60.79413)"/>
<path style="fill-rule:nonzero;fill:rgb(100%,100%,100%);fill-opacity:1;stroke-width:0.264583;stroke-linecap:butt;stroke-linejoin:miter;stroke:rgb(0%,0%,0%);stroke-opacity:1;stroke-miterlimit:4;" d="M 40.12933 20.225057 L 46.010797 20.225057 L 46.010797 23.686689 L 40.12933 23.686689 Z M 40.12933 20.225057 " transform="matrix(2.834646,0,0,2.834646,-1.654774,60.79413)"/>
<path style="fill-rule:nonzero;fill:rgb(100%,100%,100%);fill-opacity:1;stroke-width:0.264583;stroke-linecap:butt;stroke-linejoin:miter;stroke:rgb(0%,0%,0%);stroke-opacity:1;stroke-miterlimit:4;" d="M 34.249241 20.225057 L 40.12933 20.225057 L 40.12933 23.686689 L 34.249241 23.686689 Z M 34.249241 20.225057 " transform="matrix(2.834646,0,0,2.834646,-1.654774,60.79413)"/>
<path style="fill-rule:nonzero;fill:rgb(100%,100%,100%);fill-opacity:1;stroke-width:0.264583;stroke-linecap:butt;stroke-linejoin:miter;stroke:rgb(0%,0%,0%);stroke-opacity:1;stroke-miterlimit:4;" d="M 28.367774 20.225057 L 34.249241 20.225057 L 34.249241 23.686689 L 28.367774 23.686689 Z M 28.367774 20.225057 " transform="matrix(2.834646,0,0,2.834646,-1.654774,60.79413)"/>
<path style="fill-rule:nonzero;fill:rgb(100%,100%,100%);fill-opacity:1;stroke-width:0.264583;stroke-linecap:butt;stroke-linejoin:miter;stroke:rgb(0%,0%,0%);stroke-opacity:1;stroke-miterlimit:4;" d="M 22.487685 20.225057 L 28.367774 20.225057 L 28.367774 23.686689 L 22.487685 23.686689 Z M 22.487685 20.225057 " transform="matrix(2.834646,0,0,2.834646,-1.654774,60.79413)"/>
<path style="fill-rule:nonzero;fill:rgb(100%,100%,100%);fill-opacity:1;stroke-width:0.264583;stroke-linecap:butt;stroke-linejoin:miter;stroke:rgb(0%,0%,0%);stroke-opacity:1;stroke-miterlimit:4;" d="M 16.606218 20.225057 L 22.487685 20.225057 L 22.487685 23.686689 L 16.606218 23.686689 Z M 16.606218 20.225057 " transform="matrix(2.834646,0,0,2.834646,-1.654774,60.79413)"/>
<path style="fill-rule:nonzero;fill:rgb(100%,100%,100%);fill-opacity:1;stroke-width:0.264583;stroke-linecap:butt;stroke-linejoin:miter;stroke:rgb(0%,0%,0%);stroke-opacity:1;stroke-miterlimit:4;" d="M 16.606693 23.68661 L 22.486782 23.68661 L 22.486782 27.148242 L 16.606693 27.148242 Z M 16.606693 23.68661 " transform="matrix(2.834646,0,0,2.834646,133.972784,21.294353)"/>
<path style="fill-rule:nonzero;fill:rgb(100%,100%,100%);fill-opacity:1;stroke-width:0.264583;stroke-linecap:butt;stroke-linejoin:miter;stroke:rgb(0%,0%,0%);stroke-opacity:1;stroke-miterlimit:4;" d="M 22.486782 23.68661 L 28.368249 23.68661 L 28.368249 27.148242 L 22.486782 27.148242 Z M 22.486782 23.68661 " transform="matrix(2.834646,0,0,2.834646,133.972784,21.294353)"/>
<path style="fill-rule:nonzero;fill:rgb(100%,100%,100%);fill-opacity:1;stroke-width:0.264583;stroke-linecap:butt;stroke-linejoin:miter;stroke:rgb(0%,0%,0%);stroke-opacity:1;stroke-miterlimit:4;" d="M 28.368249 23.68661 L 34.248338 23.68661 L 34.248338 27.148242 L 28.368249 27.148242 Z M 28.368249 23.68661 " transform="matrix(2.834646,0,0,2.834646,133.972784,21.294353)"/>
<path style="fill-rule:nonzero;fill:rgb(100%,100%,100%);fill-opacity:1;stroke-width:0.264583;stroke-linecap:butt;stroke-linejoin:miter;stroke:rgb(0%,0%,0%);stroke-opacity:1;stroke-miterlimit:4;" d="M 34.248338 23.68661 L 40.129805 23.68661 L 40.129805 27.148242 L 34.248338 27.148242 Z M 34.248338 23.68661 " transform="matrix(2.834646,0,0,2.834646,133.972784,21.294353)"/>
<path style="fill-rule:nonzero;fill:rgb(100%,100%,100%);fill-opacity:1;stroke-width:0.264583;stroke-linecap:butt;stroke-linejoin:miter;stroke:rgb(0%,0%,0%);stroke-opacity:1;stroke-miterlimit:4;" d="M 40.129805 -27.148242 L 46.011272 -27.148242 L 46.011272 -23.68661 L 40.129805 -23.68661 Z M 40.129805 -27.148242 " transform="matrix(2.834646,0,0,-2.834646,133.972784,21.294353)"/>
<path style="fill-rule:nonzero;fill:rgb(100%,100%,100%);fill-opacity:1;stroke-width:0.264583;stroke-linecap:butt;stroke-linejoin:miter;stroke:rgb(0%,0%,0%);stroke-opacity:1;stroke-miterlimit:4;" d="M 46.011272 23.68661 L 51.891361 23.68661 L 51.891361 27.148242 L 46.011272 27.148242 Z M 46.011272 23.68661 " transform="matrix(2.834646,0,0,2.834646,133.972784,21.294353)"/>
<path style="fill-rule:nonzero;fill:rgb(100%,100%,100%);fill-opacity:1;stroke-width:0.264583;stroke-linecap:butt;stroke-linejoin:miter;stroke:rgb(0%,0%,0%);stroke-opacity:1;stroke-miterlimit:4;" d="M 46.011272 20.224978 L 51.891361 20.224978 L 51.891361 23.68661 L 46.011272 23.68661 Z M 46.011272 20.224978 " transform="matrix(2.834646,0,0,2.834646,133.972784,21.294353)"/>
<path style="fill-rule:nonzero;fill:rgb(100%,100%,100%);fill-opacity:1;stroke-width:0.264583;stroke-linecap:butt;stroke-linejoin:miter;stroke:rgb(0%,0%,0%);stroke-opacity:1;stroke-miterlimit:4;" d="M 40.129805 20.224978 L 46.011272 20.224978 L 46.011272 23.68661 L 40.129805 23.68661 Z M 40.129805 20.224978 " transform="matrix(2.834646,0,0,2.834646,133.972784,21.294353)"/>
<path style="fill-rule:nonzero;fill:rgb(100%,100%,100%);fill-opacity:1;stroke-width:0.264583;stroke-linecap:butt;stroke-linejoin:miter;stroke:rgb(0%,0%,0%);stroke-opacity:1;stroke-miterlimit:4;" d="M 34.248338 20.224978 L 40.129805 20.224978 L 40.129805 23.68661 L 34.248338 23.68661 Z M 34.248338 20.224978 " transform="matrix(2.834646,0,0,2.834646,133.972784,21.294353)"/>
<path style="fill-rule:nonzero;fill:rgb(100%,100%,100%);fill-opacity:1;stroke-width:0.264583;stroke-linecap:butt;stroke-linejoin:miter;stroke:rgb(0%,0%,0%);stroke-opacity:1;stroke-miterlimit:4;" d="M 28.368249 20.224978 L 34.248338 20.224978 L 34.248338 23.68661 L 28.368249 23.68661 Z M 28.368249 20.224978 " transform="matrix(2.834646,0,0,2.834646,133.972784,21.294353)"/>
<path style="fill-rule:nonzero;fill:rgb(100%,100%,100%);fill-opacity:1;stroke-width:0.264583;stroke-linecap:butt;stroke-linejoin:miter;stroke:rgb(0%,0%,0%);stroke-opacity:1;stroke-miterlimit:4;" d="M 22.486782 20.224978 L 28.368249 20.224978 L 28.368249 23.68661 L 22.486782 23.68661 Z M 22.486782 20.224978 " transform="matrix(2.834646,0,0,2.834646,133.972784,21.294353)"/>
<path style="fill-rule:nonzero;fill:rgb(100%,100%,100%);fill-opacity:1;stroke-width:0.264583;stroke-linecap:butt;stroke-linejoin:miter;stroke:rgb(0%,0%,0%);stroke-opacity:1;stroke-miterlimit:4;" d="M 16.606693 20.224978 L 22.486782 20.224978 L 22.486782 23.68661 L 16.606693 23.68661 Z M 16.606693 20.224978 " transform="matrix(2.834646,0,0,2.834646,133.972784,21.294353)"/>
<path style="fill-rule:nonzero;fill:rgb(100%,100%,100%);fill-opacity:1;stroke-width:0.264583;stroke-linecap:butt;stroke-linejoin:miter;stroke:rgb(0%,0%,0%);stroke-opacity:1;stroke-miterlimit:4;" d="M 16.606887 23.687319 L 22.486976 23.687319 L 22.486976 27.148951 L 16.606887 27.148951 Z M 16.606887 23.687319 " transform="matrix(2.834646,0,0,2.834646,-2.004329,21.643908)"/>
<path style="fill-rule:nonzero;fill:rgb(100%,100%,100%);fill-opacity:1;stroke-width:0.264583;stroke-linecap:butt;stroke-linejoin:miter;stroke:rgb(0%,0%,0%);stroke-opacity:1;stroke-miterlimit:4;" d="M 22.486976 23.687319 L 28.368443 23.687319 L 28.368443 27.148951 L 22.486976 27.148951 Z M 22.486976 23.687319 " transform="matrix(2.834646,0,0,2.834646,-2.004329,21.643908)"/>
<path style="fill-rule:nonzero;fill:rgb(100%,100%,100%);fill-opacity:1;stroke-width:0.264583;stroke-linecap:butt;stroke-linejoin:miter;stroke:rgb(0%,0%,0%);stroke-opacity:1;stroke-miterlimit:4;" d="M 28.368443 23.687319 L 34.248532 23.687319 L 34.248532 27.148951 L 28.368443 27.148951 Z M 28.368443 23.687319 " transform="matrix(2.834646,0,0,2.834646,-2.004329,21.643908)"/>
<path style="fill-rule:nonzero;fill:rgb(100%,100%,100%);fill-opacity:1;stroke-width:0.264583;stroke-linecap:butt;stroke-linejoin:miter;stroke:rgb(0%,0%,0%);stroke-opacity:1;stroke-miterlimit:4;" d="M 34.248532 23.687319 L 40.129999 23.687319 L 40.129999 27.148951 L 34.248532 27.148951 Z M 34.248532 23.687319 " transform="matrix(2.834646,0,0,2.834646,-2.004329,21.643908)"/>
<path style="fill-rule:nonzero;fill:rgb(100%,100%,100%);fill-opacity:1;stroke-width:0.264583;stroke-linecap:butt;stroke-linejoin:miter;stroke:rgb(0%,0%,0%);stroke-opacity:1;stroke-miterlimit:4;" d="M 40.129999 -27.148951 L 46.010088 -27.148951 L 46.010088 -23.687319 L 40.129999 -23.687319 Z M 40.129999 -27.148951 " transform="matrix(2.834646,0,0,-2.834646,-2.004329,21.643908)"/>
<path style="fill-rule:nonzero;fill:rgb(100%,100%,100%);fill-opacity:1;stroke-width:0.264583;stroke-linecap:butt;stroke-linejoin:miter;stroke:rgb(0%,0%,0%);stroke-opacity:1;stroke-miterlimit:4;" d="M 46.010088 23.687319 L 51.891555 23.687319 L 51.891555 27.148951 L 46.010088 27.148951 Z M 46.010088 23.687319 " transform="matrix(2.834646,0,0,2.834646,-2.004329,21.643908)"/>
<path style="fill-rule:nonzero;fill:rgb(100%,100%,100%);fill-opacity:1;stroke-width:0.264583;stroke-linecap:butt;stroke-linejoin:miter;stroke:rgb(0%,0%,0%);stroke-opacity:1;stroke-miterlimit:4;" d="M 46.010088 20.224309 L 51.891555 20.224309 L 51.891555 23.687319 L 46.010088 23.687319 Z M 46.010088 20.224309 " transform="matrix(2.834646,0,0,2.834646,-2.004329,21.643908)"/>
<path style="fill-rule:nonzero;fill:rgb(100%,100%,100%);fill-opacity:1;stroke-width:0.264583;stroke-linecap:butt;stroke-linejoin:miter;stroke:rgb(0%,0%,0%);stroke-opacity:1;stroke-miterlimit:4;" d="M 40.129999 20.224309 L 46.010088 20.224309 L 46.010088 23.687319 L 40.129999 23.687319 Z M 40.129999 20.224309 " transform="matrix(2.834646,0,0,2.834646,-2.004329,21.643908)"/>
<path style="fill-rule:nonzero;fill:rgb(100%,100%,100%);fill-opacity:1;stroke-width:0.264583;stroke-linecap:butt;stroke-linejoin:miter;stroke:rgb(0%,0%,0%);stroke-opacity:1;stroke-miterlimit:4;" d="M 34.248532 20.224309 L 40.129999 20.224309 L 40.129999 23.687319 L 34.248532 23.687319 Z M 34.248532 20.224309 " transform="matrix(2.834646,0,0,2.834646,-2.004329,21.643908)"/>
<path style="fill-rule:nonzero;fill:rgb(100%,100%,100%);fill-opacity:1;stroke-width:0.264583;stroke-linecap:butt;stroke-linejoin:miter;stroke:rgb(0%,0%,0%);stroke-opacity:1;stroke-miterlimit:4;" d="M 28.368443 20.224309 L 34.248532 20.224309 L 34.248532 23.687319 L 28.368443 23.687319 Z M 28.368443 20.224309 " transform="matrix(2.834646,0,0,2.834646,-2.004329,21.643908)"/>
<path style="fill-rule:nonzero;fill:rgb(100%,100%,100%);fill-opacity:1;stroke-width:0.264583;stroke-linecap:butt;stroke-linejoin:miter;stroke:rgb(0%,0%,0%);stroke-opacity:1;stroke-miterlimit:4;" d="M 22.486976 20.224309 L 28.368443 20.224309 L 28.368443 23.687319 L 22.486976 23.687319 Z M 22.486976 20.224309 " transform="matrix(2.834646,0,0,2.834646,-2.004329,21.643908)"/>
<path style="fill-rule:nonzero;fill:rgb(100%,100%,100%);fill-opacity:1;stroke-width:0.264583;stroke-linecap:butt;stroke-linejoin:miter;stroke:rgb(0%,0%,0%);stroke-opacity:1;stroke-miterlimit:4;" d="M 16.606887 20.224309 L 22.486976 20.224309 L 22.486976 23.687319 L 16.606887 23.687319 Z M 16.606887 20.224309 " transform="matrix(2.834646,0,0,2.834646,-2.004329,21.643908)"/>
<path style="fill-rule:nonzero;fill:rgb(100%,100%,100%);fill-opacity:1;stroke-width:0.264583;stroke-linecap:butt;stroke-linejoin:miter;stroke:rgb(0%,0%,0%);stroke-opacity:1;stroke-miterlimit:4;" d="M 16.605962 23.686014 L 22.487429 23.686014 L 22.487429 27.149024 L 16.605962 27.149024 Z M 16.605962 23.686014 " transform="matrix(2.834646,0,0,2.834646,134.685794,-14.21177)"/>
<path style="fill-rule:nonzero;fill:rgb(100%,100%,100%);fill-opacity:1;stroke-width:0.264583;stroke-linecap:butt;stroke-linejoin:miter;stroke:rgb(0%,0%,0%);stroke-opacity:1;stroke-miterlimit:4;" d="M 22.487429 23.686014 L 28.367518 23.686014 L 28.367518 27.149024 L 22.487429 27.149024 Z M 22.487429 23.686014 " transform="matrix(2.834646,0,0,2.834646,134.685794,-14.21177)"/>
<path style="fill-rule:nonzero;fill:rgb(100%,100%,100%);fill-opacity:1;stroke-width:0.264583;stroke-linecap:butt;stroke-linejoin:miter;stroke:rgb(0%,0%,0%);stroke-opacity:1;stroke-miterlimit:4;" d="M 28.367518 23.686014 L 34.248985 23.686014 L 34.248985 27.149024 L 28.367518 27.149024 Z M 28.367518 23.686014 " transform="matrix(2.834646,0,0,2.834646,134.685794,-14.21177)"/>
<path style="fill-rule:nonzero;fill:rgb(100%,100%,100%);fill-opacity:1;stroke-width:0.264583;stroke-linecap:butt;stroke-linejoin:miter;stroke:rgb(0%,0%,0%);stroke-opacity:1;stroke-miterlimit:4;" d="M 34.248985 23.686014 L 40.129074 23.686014 L 40.129074 27.149024 L 34.248985 27.149024 Z M 34.248985 23.686014 " transform="matrix(2.834646,0,0,2.834646,134.685794,-14.21177)"/>
<path style="fill-rule:nonzero;fill:rgb(100%,100%,100%);fill-opacity:1;stroke-width:0.264583;stroke-linecap:butt;stroke-linejoin:miter;stroke:rgb(0%,0%,0%);stroke-opacity:1;stroke-miterlimit:4;" d="M 40.129074 -27.149024 L 46.010541 -27.149024 L 46.010541 -23.686014 L 40.129074 -23.686014 Z M 40.129074 -27.149024 " transform="matrix(2.834646,0,0,-2.834646,134.685794,-14.21177)"/>
<path style="fill-rule:nonzero;fill:rgb(100%,100%,100%);fill-opacity:1;stroke-width:0.264583;stroke-linecap:butt;stroke-linejoin:miter;stroke:rgb(0%,0%,0%);stroke-opacity:1;stroke-miterlimit:4;" d="M 46.010541 23.686014 L 51.892008 23.686014 L 51.892008 27.149024 L 46.010541 27.149024 Z M 46.010541 23.686014 " transform="matrix(2.834646,0,0,2.834646,134.685794,-14.21177)"/>
<path style="fill-rule:nonzero;fill:rgb(100%,100%,100%);fill-opacity:1;stroke-width:0.264583;stroke-linecap:butt;stroke-linejoin:miter;stroke:rgb(0%,0%,0%);stroke-opacity:1;stroke-miterlimit:4;" d="M 46.010541 20.224382 L 51.892008 20.224382 L 51.892008 23.686014 L 46.010541 23.686014 Z M 46.010541 20.224382 " transform="matrix(2.834646,0,0,2.834646,134.685794,-14.21177)"/>
<path style="fill-rule:nonzero;fill:rgb(100%,100%,100%);fill-opacity:1;stroke-width:0.264583;stroke-linecap:butt;stroke-linejoin:miter;stroke:rgb(0%,0%,0%);stroke-opacity:1;stroke-miterlimit:4;" d="M 40.129074 20.224382 L 46.010541 20.224382 L 46.010541 23.686014 L 40.129074 23.686014 Z M 40.129074 20.224382 " transform="matrix(2.834646,0,0,2.834646,134.685794,-14.21177)"/>
<path style="fill-rule:nonzero;fill:rgb(100%,100%,100%);fill-opacity:1;stroke-width:0.264583;stroke-linecap:butt;stroke-linejoin:miter;stroke:rgb(0%,0%,0%);stroke-opacity:1;stroke-miterlimit:4;" d="M 34.248985 20.224382 L 40.129074 20.224382 L 40.129074 23.686014 L 34.248985 23.686014 Z M 34.248985 20.224382 " transform="matrix(2.834646,0,0,2.834646,134.685794,-14.21177)"/>
<path style="fill-rule:nonzero;fill:rgb(100%,100%,100%);fill-opacity:1;stroke-width:0.264583;stroke-linecap:butt;stroke-linejoin:miter;stroke:rgb(0%,0%,0%);stroke-opacity:1;stroke-miterlimit:4;" d="M 28.367518 20.224382 L 34.248985 20.224382 L 34.248985 23.686014 L 28.367518 23.686014 Z M 28.367518 20.224382 " transform="matrix(2.834646,0,0,2.834646,134.685794,-14.21177)"/>
<path style="fill-rule:nonzero;fill:rgb(100%,100%,100%);fill-opacity:1;stroke-width:0.264583;stroke-linecap:butt;stroke-linejoin:miter;stroke:rgb(0%,0%,0%);stroke-opacity:1;stroke-miterlimit:4;" d="M 22.487429 20.224382 L 28.367518 20.224382 L 28.367518 23.686014 L 22.487429 23.686014 Z M 22.487429 20.224382 " transform="matrix(2.834646,0,0,2.834646,134.685794,-14.21177)"/>
<path style="fill-rule:nonzero;fill:rgb(100%,100%,100%);fill-opacity:1;stroke-width:0.264583;stroke-linecap:butt;stroke-linejoin:miter;stroke:rgb(0%,0%,0%);stroke-opacity:1;stroke-miterlimit:4;" d="M 16.605962 20.224382 L 22.487429 20.224382 L 22.487429 23.686014 L 16.605962 23.686014 Z M 16.605962 20.224382 " transform="matrix(2.834646,0,0,2.834646,134.685794,-14.21177)"/>
<path style="fill-rule:nonzero;fill:rgb(100%,100%,100%);fill-opacity:1;stroke-width:0.264583;stroke-linecap:butt;stroke-linejoin:miter;stroke:rgb(0%,0%,0%);stroke-opacity:1;stroke-miterlimit:4;" d="M 16.606201 23.685995 L 22.487668 23.685995 L 22.487668 27.149005 L 16.606201 27.149005 Z M 16.606201 23.685995 " transform="matrix(2.834646,0,0,2.834646,-1.232852,-14.547653)"/>
<path style="fill-rule:nonzero;fill:rgb(100%,100%,100%);fill-opacity:1;stroke-width:0.264583;stroke-linecap:butt;stroke-linejoin:miter;stroke:rgb(0%,0%,0%);stroke-opacity:1;stroke-miterlimit:4;" d="M 22.487668 23.685995 L 28.367757 23.685995 L 28.367757 27.149005 L 22.487668 27.149005 Z M 22.487668 23.685995 " transform="matrix(2.834646,0,0,2.834646,-1.232852,-14.547653)"/>
<path style="fill-rule:nonzero;fill:rgb(100%,100%,100%);fill-opacity:1;stroke-width:0.264583;stroke-linecap:butt;stroke-linejoin:miter;stroke:rgb(0%,0%,0%);stroke-opacity:1;stroke-miterlimit:4;" d="M 28.367757 23.685995 L 34.249224 23.685995 L 34.249224 27.149005 L 28.367757 27.149005 Z M 28.367757 23.685995 " transform="matrix(2.834646,0,0,2.834646,-1.232852,-14.547653)"/>
<path style="fill-rule:nonzero;fill:rgb(100%,100%,100%);fill-opacity:1;stroke-width:0.264583;stroke-linecap:butt;stroke-linejoin:miter;stroke:rgb(0%,0%,0%);stroke-opacity:1;stroke-miterlimit:4;" d="M 34.249224 23.685995 L 40.129313 23.685995 L 40.129313 27.149005 L 34.249224 27.149005 Z M 34.249224 23.685995 " transform="matrix(2.834646,0,0,2.834646,-1.232852,-14.547653)"/>
<path style="fill-rule:nonzero;fill:rgb(100%,100%,100%);fill-opacity:1;stroke-width:0.264583;stroke-linecap:butt;stroke-linejoin:miter;stroke:rgb(0%,0%,0%);stroke-opacity:1;stroke-miterlimit:4;" d="M 40.129313 -27.149005 L 46.01078 -27.149005 L 46.01078 -23.685995 L 40.129313 -23.685995 Z M 40.129313 -27.149005 " transform="matrix(2.834646,0,0,-2.834646,-1.232852,-14.547653)"/>
<path style="fill-rule:nonzero;fill:rgb(100%,100%,100%);fill-opacity:1;stroke-width:0.264583;stroke-linecap:butt;stroke-linejoin:miter;stroke:rgb(0%,0%,0%);stroke-opacity:1;stroke-miterlimit:4;" d="M 46.01078 23.685995 L 51.890869 23.685995 L 51.890869 27.149005 L 46.01078 27.149005 Z M 46.01078 23.685995 " transform="matrix(2.834646,0,0,2.834646,-1.232852,-14.547653)"/>
<path style="fill-rule:nonzero;fill:rgb(100%,100%,100%);fill-opacity:1;stroke-width:0.264583;stroke-linecap:butt;stroke-linejoin:miter;stroke:rgb(0%,0%,0%);stroke-opacity:1;stroke-miterlimit:4;" d="M 46.01078 20.224363 L 51.890869 20.224363 L 51.890869 23.685995 L 46.01078 23.685995 Z M 46.01078 20.224363 " transform="matrix(2.834646,0,0,2.834646,-1.232852,-14.547653)"/>
<path style="fill-rule:nonzero;fill:rgb(100%,100%,100%);fill-opacity:1;stroke-width:0.264583;stroke-linecap:butt;stroke-linejoin:miter;stroke:rgb(0%,0%,0%);stroke-opacity:1;stroke-miterlimit:4;" d="M 40.129313 20.224363 L 46.01078 20.224363 L 46.01078 23.685995 L 40.129313 23.685995 Z M 40.129313 20.224363 " transform="matrix(2.834646,0,0,2.834646,-1.232852,-14.547653)"/>
<path style="fill-rule:nonzero;fill:rgb(100%,100%,100%);fill-opacity:1;stroke-width:0.264583;stroke-linecap:butt;stroke-linejoin:miter;stroke:rgb(0%,0%,0%);stroke-opacity:1;stroke-miterlimit:4;" d="M 34.249224 20.224363 L 40.129313 20.224363 L 40.129313 23.685995 L 34.249224 23.685995 Z M 34.249224 20.224363 " transform="matrix(2.834646,0,0,2.834646,-1.232852,-14.547653)"/>
<path style="fill-rule:nonzero;fill:rgb(100%,100%,100%);fill-opacity:1;stroke-width:0.264583;stroke-linecap:butt;stroke-linejoin:miter;stroke:rgb(0%,0%,0%);stroke-opacity:1;stroke-miterlimit:4;" d="M 28.367757 20.224363 L 34.249224 20.224363 L 34.249224 23.685995 L 28.367757 23.685995 Z M 28.367757 20.224363 " transform="matrix(2.834646,0,0,2.834646,-1.232852,-14.547653)"/>
<path style="fill-rule:nonzero;fill:rgb(100%,100%,100%);fill-opacity:1;stroke-width:0.264583;stroke-linecap:butt;stroke-linejoin:miter;stroke:rgb(0%,0%,0%);stroke-opacity:1;stroke-miterlimit:4;" d="M 22.487668 20.224363 L 28.367757 20.224363 L 28.367757 23.685995 L 22.487668 23.685995 Z M 22.487668 20.224363 " transform="matrix(2.834646,0,0,2.834646,-1.232852,-14.547653)"/>
<path style="fill-rule:nonzero;fill:rgb(100%,100%,100%);fill-opacity:1;stroke-width:0.264583;stroke-linecap:butt;stroke-linejoin:miter;stroke:rgb(0%,0%,0%);stroke-opacity:1;stroke-miterlimit:4;" d="M 16.606201 20.224363 L 22.487668 20.224363 L 22.487668 23.685995 L 16.606201 23.685995 Z M 16.606201 20.224363 " transform="matrix(2.834646,0,0,2.834646,-1.232852,-14.547653)"/>
</g>
</svg>
