<?xml version="1.0" encoding="UTF-8" standalone="no"?>
<svg
   width="595.275591pt"
   height="841.889764pt"
   viewBox="0 0 595.275591 841.889764"
   version="1.2"
   id="svg599"
   sodipodi:docname="karte.svg"
   inkscape:version="1.1.1 (c3084ef, 2021-09-22)"
   xmlns:inkscape="http://www.inkscape.org/namespaces/inkscape"
   xmlns:sodipodi="http://sodipodi.sourceforge.net/DTD/sodipodi-0.dtd"
   xmlns="http://www.w3.org/2000/svg"
   xmlns:svg="http://www.w3.org/2000/svg">
  <defs
     id="defs603" />
  <sodipodi:namedview
     id="namedview601"
     pagecolor="#505050"
     bordercolor="#eeeeee"
     borderopacity="1"
     inkscape:pageshadow="0"
     inkscape:pageopacity="0"
     inkscape:pagecheckerboard="0"
     inkscape:document-units="pt"
     showgrid="false"
     inkscape:zoom="2.7417952"
     inkscape:cx="225.03505"
     inkscape:cy="165.76731"
     inkscape:window-width="1377"
     inkscape:window-height="847"
     inkscape:window-x="0"
     inkscape:window-y="25"
     inkscape:window-maximized="0"
     inkscape:current-layer="surface132728" />
  <g
     id="surface132728">
    <path
       style=" stroke:none;fill-rule:nonzero;fill:rgb(100%,100%,100%);fill-opacity:1;"
       d="M 32.386719 23.433594 L 292.742188 23.433594 L 292.742188 233.644531 L 32.386719 233.644531 Z M 32.386719 23.433594 "
       id="path404" />
    <g class="Regalgruppe_A"
       id="g730">
      <path class="Regal_A1"
         [class.selected]="isSelected('Regal_A1')"
         (click)="select('Regal_A1')"
         style="fill-rule:nonzero;fill:rgb(100%,100%,100%);fill-opacity:1;stroke-width:0.264583;stroke-linecap:butt;stroke-linejoin:miter;stroke:rgb(0%,0%,0%);stroke-opacity:1;stroke-miterlimit:4;"
         d="M 16.606061 23.686388 L 22.487528 23.686388 L 22.487528 27.149398 L 16.606061 27.149398 Z M 16.606061 23.686388 "
         transform="matrix(2.834646,0,0,2.834646,135.02145,93.302796)"
         id="path406" />
      <path class="Regal_A2"
         [class.selected]="isSelected('Regal_A2')"
         (click)="select('Regal_A2')"
         style="fill-rule:nonzero;fill:rgb(100%,100%,100%);fill-opacity:1;stroke-width:0.264583;stroke-linecap:butt;stroke-linejoin:miter;stroke:rgb(0%,0%,0%);stroke-opacity:1;stroke-miterlimit:4;"
         d="M 22.487528 23.686388 L 28.367617 23.686388 L 28.367617 27.149398 L 22.487528 27.149398 Z M 22.487528 23.686388 "
         transform="matrix(2.834646,0,0,2.834646,135.02145,93.302796)"
         id="path408" />
      <path class="Regal_A3"
         [class.selected]="isSelected('Regal_A3')"
         (click)="select('Regal_A3')"
         style="fill-rule:nonzero;fill:rgb(100%,100%,100%);fill-opacity:1;stroke-width:0.264583;stroke-linecap:butt;stroke-linejoin:miter;stroke:rgb(0%,0%,0%);stroke-opacity:1;stroke-miterlimit:4;"
         d="M 28.367617 23.686388 L 34.249084 23.686388 L 34.249084 27.149398 L 28.367617 27.149398 Z M 28.367617 23.686388 "
         transform="matrix(2.834646,0,0,2.834646,135.02145,93.302796)"
         id="path410" />
      <path class="Regal_A4"
         [class.selected]="isSelected('Regal_A4')"
         (click)="select('Regal_A4')"
         style="fill-rule:nonzero;fill:rgb(100%,100%,100%);fill-opacity:1;stroke-width:0.264583;stroke-linecap:butt;stroke-linejoin:miter;stroke:rgb(0%,0%,0%);stroke-opacity:1;stroke-miterlimit:4;"
         d="M 34.249084 23.686388 L 40.129173 23.686388 L 40.129173 27.149398 L 34.249084 27.149398 Z M 34.249084 23.686388 "
         transform="matrix(2.834646,0,0,2.834646,135.02145,93.302796)"
         id="path412" />
      <path class="Regal_A5"
         [class.selected]="isSelected('Regal_A5')"
         (click)="select('Regal_A5')"
         style="fill-rule:nonzero;fill:rgb(100%,100%,100%);fill-opacity:1;stroke-width:0.264583;stroke-linecap:butt;stroke-linejoin:miter;stroke:rgb(0%,0%,0%);stroke-opacity:1;stroke-miterlimit:4;"
         d="M 40.129173 -27.149398 L 46.01064 -27.149398 L 46.01064 -23.686388 L 40.129173 -23.686388 Z M 40.129173 -27.149398 "
         transform="matrix(2.834646,0,0,-2.834646,135.02145,93.302796)"
         id="path414" />
      <path class="Regal_A6"
         [class.selected]="isSelected('Regal_A6')"
         (click)="select('Regal_A6')"
         style="fill-rule:nonzero;fill:rgb(100%,100%,100%);fill-opacity:1;stroke-width:0.264583;stroke-linecap:butt;stroke-linejoin:miter;stroke:rgb(0%,0%,0%);stroke-opacity:1;stroke-miterlimit:4;"
         d="M 46.01064 23.686388 L 51.892107 23.686388 L 51.892107 27.149398 L 46.01064 27.149398 Z M 46.01064 23.686388 "
         transform="matrix(2.834646,0,0,2.834646,135.02145,93.302796)"
         id="path416" />
      <path class="Regal_A7"
         [class.selected]="isSelected('Regal_A7')"
         (click)="select('Regal_A7')"
         style="fill-rule:nonzero;fill:rgb(100%,100%,100%);fill-opacity:1;stroke-width:0.264583;stroke-linecap:butt;stroke-linejoin:miter;stroke:rgb(0%,0%,0%);stroke-opacity:1;stroke-miterlimit:4;"
         d="M 46.01064 20.224756 L 51.892107 20.224756 L 51.892107 23.686388 L 46.01064 23.686388 Z M 46.01064 20.224756 "
         transform="matrix(2.834646,0,0,2.834646,135.02145,93.302796)"
         id="path418" />
      <path class="Regal_A8"
         [class.selected]="isSelected('Regal_A8')"
         (click)="select('Regal_A8')"
         style="fill-rule:nonzero;fill:rgb(100%,100%,100%);fill-opacity:1;stroke-width:0.264583;stroke-linecap:butt;stroke-linejoin:miter;stroke:rgb(0%,0%,0%);stroke-opacity:1;stroke-miterlimit:4;"
         d="M 40.129173 20.224756 L 46.01064 20.224756 L 46.01064 23.686388 L 40.129173 23.686388 Z M 40.129173 20.224756 "
         transform="matrix(2.834646,0,0,2.834646,135.02145,93.302796)"
         id="path420" />
      <path class="Regal_A9"
         [class.selected]="isSelected('Regal_A9')"
         (click)="select('Regal_A9')"
         style="fill-rule:nonzero;fill:rgb(100%,100%,100%);fill-opacity:1;stroke-width:0.264583;stroke-linecap:butt;stroke-linejoin:miter;stroke:rgb(0%,0%,0%);stroke-opacity:1;stroke-miterlimit:4;"
         d="M 34.249084 20.224756 L 40.129173 20.224756 L 40.129173 23.686388 L 34.249084 23.686388 Z M 34.249084 20.224756 "
         transform="matrix(2.834646,0,0,2.834646,135.02145,93.302796)"
         id="path422" />
      <path class="Regal_A10"
         [class.selected]="isSelected('Regal_A10')"
         (click)="select('Regal_A10')"
         style="fill-rule:nonzero;fill:rgb(100%,100%,100%);fill-opacity:1;stroke-width:0.264583;stroke-linecap:butt;stroke-linejoin:miter;stroke:rgb(0%,0%,0%);stroke-opacity:1;stroke-miterlimit:4;"
         d="M 28.367617 20.224756 L 34.249084 20.224756 L 34.249084 23.686388 L 28.367617 23.686388 Z M 28.367617 20.224756 "
         transform="matrix(2.834646,0,0,2.834646,135.02145,93.302796)"
         id="path424" />
      <path class="Regal_A11"
         [class.selected]="isSelected('Regal_A11')"
         (click)="select('Regal_A11')"
         style="fill-rule:nonzero;fill:rgb(100%,100%,100%);fill-opacity:1;stroke-width:0.264583;stroke-linecap:butt;stroke-linejoin:miter;stroke:rgb(0%,0%,0%);stroke-opacity:1;stroke-miterlimit:4;"
         d="M 22.487528 20.224756 L 28.367617 20.224756 L 28.367617 23.686388 L 22.487528 23.686388 Z M 22.487528 20.224756 "
         transform="matrix(2.834646,0,0,2.834646,135.02145,93.302796)"
         id="path426" />
      <path class="Regal_A12"
         [class.selected]="isSelected('Regal_A12')"
         (click)="select('Regal_A12')"
         style="fill-rule:nonzero;fill:rgb(100%,100%,100%);fill-opacity:1;stroke-width:0.264583;stroke-linecap:butt;stroke-linejoin:miter;stroke:rgb(0%,0%,0%);stroke-opacity:1;stroke-miterlimit:4;"
         d="M 16.606061 20.224756 L 22.487528 20.224756 L 22.487528 23.686388 L 16.606061 23.686388 Z M 16.606061 20.224756 "
         transform="matrix(2.834646,0,0,2.834646,135.02145,93.302796)"
         id="path428" />
    </g>
    <g class="Regalgruppe_B"
       id="g659">
      <path
         style="fill-rule:nonzero;fill:rgb(100%,100%,100%);fill-opacity:1;stroke-width:0.264583;stroke-linecap:butt;stroke-linejoin:miter;stroke:rgb(0%,0%,0%);stroke-opacity:1;stroke-miterlimit:4;"
         d="M 16.606925 23.686426 L 22.487014 23.686426 L 22.487014 27.149436 L 16.606925 27.149436 Z M 16.606925 23.686426 "
         transform="matrix(2.834646,0,0,2.834646,-1.305218,94.001907)"
         id="path430" />
      <path
         style="fill-rule:nonzero;fill:rgb(100%,100%,100%);fill-opacity:1;stroke-width:0.264583;stroke-linecap:butt;stroke-linejoin:miter;stroke:rgb(0%,0%,0%);stroke-opacity:1;stroke-miterlimit:4;"
         d="M 22.487014 23.686426 L 28.368481 23.686426 L 28.368481 27.149436 L 22.487014 27.149436 Z M 22.487014 23.686426 "
         transform="matrix(2.834646,0,0,2.834646,-1.305218,94.001907)"
         id="path432" />
      <path
         style="fill-rule:nonzero;fill:rgb(100%,100%,100%);fill-opacity:1;stroke-width:0.264583;stroke-linecap:butt;stroke-linejoin:miter;stroke:rgb(0%,0%,0%);stroke-opacity:1;stroke-miterlimit:4;"
         d="M 28.368481 23.686426 L 34.24857 23.686426 L 34.24857 27.149436 L 28.368481 27.149436 Z M 28.368481 23.686426 "
         transform="matrix(2.834646,0,0,2.834646,-1.305218,94.001907)"
         id="path434" />
      <path
         style="fill-rule:nonzero;fill:rgb(100%,100%,100%);fill-opacity:1;stroke-width:0.264583;stroke-linecap:butt;stroke-linejoin:miter;stroke:rgb(0%,0%,0%);stroke-opacity:1;stroke-miterlimit:4;"
         d="M 34.24857 23.686426 L 40.130037 23.686426 L 40.130037 27.149436 L 34.24857 27.149436 Z M 34.24857 23.686426 "
         transform="matrix(2.834646,0,0,2.834646,-1.305218,94.001907)"
         id="path436" />
      <path
         style="fill-rule:nonzero;fill:rgb(100%,100%,100%);fill-opacity:1;stroke-width:0.264583;stroke-linecap:butt;stroke-linejoin:miter;stroke:rgb(0%,0%,0%);stroke-opacity:1;stroke-miterlimit:4;"
         d="M 40.130037 -27.149436 L 46.010126 -27.149436 L 46.010126 -23.686426 L 40.130037 -23.686426 Z M 40.130037 -27.149436 "
         transform="matrix(2.834646,0,0,-2.834646,-1.305218,94.001907)"
         id="path438" />
      <path
         style="fill-rule:nonzero;fill:rgb(100%,100%,100%);fill-opacity:1;stroke-width:0.264583;stroke-linecap:butt;stroke-linejoin:miter;stroke:rgb(0%,0%,0%);stroke-opacity:1;stroke-miterlimit:4;"
         d="M 46.010126 23.686426 L 51.891593 23.686426 L 51.891593 27.149436 L 46.010126 27.149436 Z M 46.010126 23.686426 "
         transform="matrix(2.834646,0,0,2.834646,-1.305218,94.001907)"
         id="path440" />
      <path
         style="fill-rule:nonzero;fill:rgb(100%,100%,100%);fill-opacity:1;stroke-width:0.264583;stroke-linecap:butt;stroke-linejoin:miter;stroke:rgb(0%,0%,0%);stroke-opacity:1;stroke-miterlimit:4;"
         d="M 46.010126 20.224794 L 51.891593 20.224794 L 51.891593 23.686426 L 46.010126 23.686426 Z M 46.010126 20.224794 "
         transform="matrix(2.834646,0,0,2.834646,-1.305218,94.001907)"
         id="path442" />
      <path
         style="fill-rule:nonzero;fill:rgb(100%,100%,100%);fill-opacity:1;stroke-width:0.264583;stroke-linecap:butt;stroke-linejoin:miter;stroke:rgb(0%,0%,0%);stroke-opacity:1;stroke-miterlimit:4;"
         d="M 40.130037 20.224794 L 46.010126 20.224794 L 46.010126 23.686426 L 40.130037 23.686426 Z M 40.130037 20.224794 "
         transform="matrix(2.834646,0,0,2.834646,-1.305218,94.001907)"
         id="path444" />
      <path
         style="fill-rule:nonzero;fill:rgb(100%,100%,100%);fill-opacity:1;stroke-width:0.264583;stroke-linecap:butt;stroke-linejoin:miter;stroke:rgb(0%,0%,0%);stroke-opacity:1;stroke-miterlimit:4;"
         d="M 34.24857 20.224794 L 40.130037 20.224794 L 40.130037 23.686426 L 34.24857 23.686426 Z M 34.24857 20.224794 "
         transform="matrix(2.834646,0,0,2.834646,-1.305218,94.001907)"
         id="path446" />
      <path
         style="fill-rule:nonzero;fill:rgb(100%,100%,100%);fill-opacity:1;stroke-width:0.264583;stroke-linecap:butt;stroke-linejoin:miter;stroke:rgb(0%,0%,0%);stroke-opacity:1;stroke-miterlimit:4;"
         d="M 28.368481 20.224794 L 34.24857 20.224794 L 34.24857 23.686426 L 28.368481 23.686426 Z M 28.368481 20.224794 "
         transform="matrix(2.834646,0,0,2.834646,-1.305218,94.001907)"
         id="path448" />
      <path
         style="fill-rule:nonzero;fill:rgb(100%,100%,100%);fill-opacity:1;stroke-width:0.264583;stroke-linecap:butt;stroke-linejoin:miter;stroke:rgb(0%,0%,0%);stroke-opacity:1;stroke-miterlimit:4;"
         d="M 22.487014 20.224794 L 28.368481 20.224794 L 28.368481 23.686426 L 22.487014 23.686426 Z M 22.487014 20.224794 "
         transform="matrix(2.834646,0,0,2.834646,-1.305218,94.001907)"
         id="path450" />
      <path
         style="fill-rule:nonzero;fill:rgb(100%,100%,100%);fill-opacity:1;stroke-width:0.264583;stroke-linecap:butt;stroke-linejoin:miter;stroke:rgb(0%,0%,0%);stroke-opacity:1;stroke-miterlimit:4;"
         d="M 16.606925 20.224794 L 22.487014 20.224794 L 22.487014 23.686426 L 16.606925 23.686426 Z M 16.606925 20.224794 "
         transform="matrix(2.834646,0,0,2.834646,-1.305218,94.001907)"
         id="path452" />
    </g>
    <g class="Regalgruppe_C"
       id="g716">
      <path
         style="fill-rule:nonzero;fill:rgb(100%,100%,100%);fill-opacity:1;stroke-width:0.264583;stroke-linecap:butt;stroke-linejoin:miter;stroke:rgb(0%,0%,0%);stroke-opacity:1;stroke-miterlimit:4;"
         d="M 16.606023 23.685981 L 22.48749 23.685981 L 22.48749 27.14899 L 16.606023 27.14899 Z M 16.606023 23.685981 "
         transform="matrix(2.834646,0,0,2.834646,134.322341,60.444575)"
         id="path454" />
      <path
         style="fill-rule:nonzero;fill:rgb(100%,100%,100%);fill-opacity:1;stroke-width:0.264583;stroke-linecap:butt;stroke-linejoin:miter;stroke:rgb(0%,0%,0%);stroke-opacity:1;stroke-miterlimit:4;"
         d="M 22.48749 23.685981 L 28.367579 23.685981 L 28.367579 27.14899 L 22.48749 27.14899 Z M 22.48749 23.685981 "
         transform="matrix(2.834646,0,0,2.834646,134.322341,60.444575)"
         id="path456" />
      <path
         style="fill-rule:nonzero;fill:rgb(100%,100%,100%);fill-opacity:1;stroke-width:0.264583;stroke-linecap:butt;stroke-linejoin:miter;stroke:rgb(0%,0%,0%);stroke-opacity:1;stroke-miterlimit:4;"
         d="M 28.367579 23.685981 L 34.249046 23.685981 L 34.249046 27.14899 L 28.367579 27.14899 Z M 28.367579 23.685981 "
         transform="matrix(2.834646,0,0,2.834646,134.322341,60.444575)"
         id="path458" />
      <path
         style="fill-rule:nonzero;fill:rgb(100%,100%,100%);fill-opacity:1;stroke-width:0.264583;stroke-linecap:butt;stroke-linejoin:miter;stroke:rgb(0%,0%,0%);stroke-opacity:1;stroke-miterlimit:4;"
         d="M 34.249046 23.685981 L 40.129135 23.685981 L 40.129135 27.14899 L 34.249046 27.14899 Z M 34.249046 23.685981 "
         transform="matrix(2.834646,0,0,2.834646,134.322341,60.444575)"
         id="path460" />
      <path
         style="fill-rule:nonzero;fill:rgb(100%,100%,100%);fill-opacity:1;stroke-width:0.264583;stroke-linecap:butt;stroke-linejoin:miter;stroke:rgb(0%,0%,0%);stroke-opacity:1;stroke-miterlimit:4;"
         d="M 40.129135 -27.14899 L 46.010602 -27.14899 L 46.010602 -23.685981 L 40.129135 -23.685981 Z M 40.129135 -27.14899 "
         transform="matrix(2.834646,0,0,-2.834646,134.322341,60.444575)"
         id="path462" />
      <path
         style="fill-rule:nonzero;fill:rgb(100%,100%,100%);fill-opacity:1;stroke-width:0.264583;stroke-linecap:butt;stroke-linejoin:miter;stroke:rgb(0%,0%,0%);stroke-opacity:1;stroke-miterlimit:4;"
         d="M 46.010602 23.685981 L 51.892069 23.685981 L 51.892069 27.14899 L 46.010602 27.14899 Z M 46.010602 23.685981 "
         transform="matrix(2.834646,0,0,2.834646,134.322341,60.444575)"
         id="path464" />
      <path
         style="fill-rule:nonzero;fill:rgb(100%,100%,100%);fill-opacity:1;stroke-width:0.264583;stroke-linecap:butt;stroke-linejoin:miter;stroke:rgb(0%,0%,0%);stroke-opacity:1;stroke-miterlimit:4;"
         d="M 46.010602 20.224349 L 51.892069 20.224349 L 51.892069 23.685981 L 46.010602 23.685981 Z M 46.010602 20.224349 "
         transform="matrix(2.834646,0,0,2.834646,134.322341,60.444575)"
         id="path466" />
      <path
         style="fill-rule:nonzero;fill:rgb(100%,100%,100%);fill-opacity:1;stroke-width:0.264583;stroke-linecap:butt;stroke-linejoin:miter;stroke:rgb(0%,0%,0%);stroke-opacity:1;stroke-miterlimit:4;"
         d="M 40.129135 20.224349 L 46.010602 20.224349 L 46.010602 23.685981 L 40.129135 23.685981 Z M 40.129135 20.224349 "
         transform="matrix(2.834646,0,0,2.834646,134.322341,60.444575)"
         id="path468" />
      <path
         style="fill-rule:nonzero;fill:rgb(100%,100%,100%);fill-opacity:1;stroke-width:0.264583;stroke-linecap:butt;stroke-linejoin:miter;stroke:rgb(0%,0%,0%);stroke-opacity:1;stroke-miterlimit:4;"
         d="M 34.249046 20.224349 L 40.129135 20.224349 L 40.129135 23.685981 L 34.249046 23.685981 Z M 34.249046 20.224349 "
         transform="matrix(2.834646,0,0,2.834646,134.322341,60.444575)"
         id="path470" />
      <path
         style="fill-rule:nonzero;fill:rgb(100%,100%,100%);fill-opacity:1;stroke-width:0.264583;stroke-linecap:butt;stroke-linejoin:miter;stroke:rgb(0%,0%,0%);stroke-opacity:1;stroke-miterlimit:4;"
         d="M 28.367579 20.224349 L 34.249046 20.224349 L 34.249046 23.685981 L 28.367579 23.685981 Z M 28.367579 20.224349 "
         transform="matrix(2.834646,0,0,2.834646,134.322341,60.444575)"
         id="path472" />
      <path
         style="fill-rule:nonzero;fill:rgb(100%,100%,100%);fill-opacity:1;stroke-width:0.264583;stroke-linecap:butt;stroke-linejoin:miter;stroke:rgb(0%,0%,0%);stroke-opacity:1;stroke-miterlimit:4;"
         d="M 22.48749 20.224349 L 28.367579 20.224349 L 28.367579 23.685981 L 22.48749 23.685981 Z M 22.48749 20.224349 "
         transform="matrix(2.834646,0,0,2.834646,134.322341,60.444575)"
         id="path474" />
      <path
         style="fill-rule:nonzero;fill:rgb(100%,100%,100%);fill-opacity:1;stroke-width:0.264583;stroke-linecap:butt;stroke-linejoin:miter;stroke:rgb(0%,0%,0%);stroke-opacity:1;stroke-miterlimit:4;"
         d="M 16.606023 20.224349 L 22.48749 20.224349 L 22.48749 23.685981 L 16.606023 23.685981 Z M 16.606023 20.224349 "
         transform="matrix(2.834646,0,0,2.834646,134.322341,60.444575)"
         id="path476" />
    </g>
    <g class="Regalgruppe_D"
       id="g645">
      <path
         style="fill-rule:nonzero;fill:rgb(100%,100%,100%);fill-opacity:1;stroke-width:0.264583;stroke-linecap:butt;stroke-linejoin:miter;stroke:rgb(0%,0%,0%);stroke-opacity:1;stroke-miterlimit:4;"
         d="M 16.606218 23.686689 L 22.487685 23.686689 L 22.487685 27.148321 L 16.606218 27.148321 Z M 16.606218 23.686689 "
         transform="matrix(2.834646,0,0,2.834646,-1.654774,60.79413)"
         id="path478" />
      <path
         style="fill-rule:nonzero;fill:rgb(100%,100%,100%);fill-opacity:1;stroke-width:0.264583;stroke-linecap:butt;stroke-linejoin:miter;stroke:rgb(0%,0%,0%);stroke-opacity:1;stroke-miterlimit:4;"
         d="M 22.487685 23.686689 L 28.367774 23.686689 L 28.367774 27.148321 L 22.487685 27.148321 Z M 22.487685 23.686689 "
         transform="matrix(2.834646,0,0,2.834646,-1.654774,60.79413)"
         id="path480" />
      <path
         style="fill-rule:nonzero;fill:rgb(100%,100%,100%);fill-opacity:1;stroke-width:0.264583;stroke-linecap:butt;stroke-linejoin:miter;stroke:rgb(0%,0%,0%);stroke-opacity:1;stroke-miterlimit:4;"
         d="M 28.367774 23.686689 L 34.249241 23.686689 L 34.249241 27.148321 L 28.367774 27.148321 Z M 28.367774 23.686689 "
         transform="matrix(2.834646,0,0,2.834646,-1.654774,60.79413)"
         id="path482" />
      <path
         style="fill-rule:nonzero;fill:rgb(100%,100%,100%);fill-opacity:1;stroke-width:0.264583;stroke-linecap:butt;stroke-linejoin:miter;stroke:rgb(0%,0%,0%);stroke-opacity:1;stroke-miterlimit:4;"
         d="M 34.249241 23.686689 L 40.12933 23.686689 L 40.12933 27.148321 L 34.249241 27.148321 Z M 34.249241 23.686689 "
         transform="matrix(2.834646,0,0,2.834646,-1.654774,60.79413)"
         id="path484" />
      <path
         style="fill-rule:nonzero;fill:rgb(100%,100%,100%);fill-opacity:1;stroke-width:0.264583;stroke-linecap:butt;stroke-linejoin:miter;stroke:rgb(0%,0%,0%);stroke-opacity:1;stroke-miterlimit:4;"
         d="M 40.12933 -27.148321 L 46.010797 -27.148321 L 46.010797 -23.686689 L 40.12933 -23.686689 Z M 40.12933 -27.148321 "
         transform="matrix(2.834646,0,0,-2.834646,-1.654774,60.79413)"
         id="path486" />
      <path
         style="fill-rule:nonzero;fill:rgb(100%,100%,100%);fill-opacity:1;stroke-width:0.264583;stroke-linecap:butt;stroke-linejoin:miter;stroke:rgb(0%,0%,0%);stroke-opacity:1;stroke-miterlimit:4;"
         d="M 46.010797 23.686689 L 51.890886 23.686689 L 51.890886 27.148321 L 46.010797 27.148321 Z M 46.010797 23.686689 "
         transform="matrix(2.834646,0,0,2.834646,-1.654774,60.79413)"
         id="path488" />
      <path
         style="fill-rule:nonzero;fill:rgb(100%,100%,100%);fill-opacity:1;stroke-width:0.264583;stroke-linecap:butt;stroke-linejoin:miter;stroke:rgb(0%,0%,0%);stroke-opacity:1;stroke-miterlimit:4;"
         d="M 46.010797 20.225057 L 51.890886 20.225057 L 51.890886 23.686689 L 46.010797 23.686689 Z M 46.010797 20.225057 "
         transform="matrix(2.834646,0,0,2.834646,-1.654774,60.79413)"
         id="path490" />
      <path
         style="fill-rule:nonzero;fill:rgb(100%,100%,100%);fill-opacity:1;stroke-width:0.264583;stroke-linecap:butt;stroke-linejoin:miter;stroke:rgb(0%,0%,0%);stroke-opacity:1;stroke-miterlimit:4;"
         d="M 40.12933 20.225057 L 46.010797 20.225057 L 46.010797 23.686689 L 40.12933 23.686689 Z M 40.12933 20.225057 "
         transform="matrix(2.834646,0,0,2.834646,-1.654774,60.79413)"
         id="path492" />
      <path
         style="fill-rule:nonzero;fill:rgb(100%,100%,100%);fill-opacity:1;stroke-width:0.264583;stroke-linecap:butt;stroke-linejoin:miter;stroke:rgb(0%,0%,0%);stroke-opacity:1;stroke-miterlimit:4;"
         d="M 34.249241 20.225057 L 40.12933 20.225057 L 40.12933 23.686689 L 34.249241 23.686689 Z M 34.249241 20.225057 "
         transform="matrix(2.834646,0,0,2.834646,-1.654774,60.79413)"
         id="path494" />
      <path
         style="fill-rule:nonzero;fill:rgb(100%,100%,100%);fill-opacity:1;stroke-width:0.264583;stroke-linecap:butt;stroke-linejoin:miter;stroke:rgb(0%,0%,0%);stroke-opacity:1;stroke-miterlimit:4;"
         d="M 28.367774 20.225057 L 34.249241 20.225057 L 34.249241 23.686689 L 28.367774 23.686689 Z M 28.367774 20.225057 "
         transform="matrix(2.834646,0,0,2.834646,-1.654774,60.79413)"
         id="path496" />
      <path
         style="fill-rule:nonzero;fill:rgb(100%,100%,100%);fill-opacity:1;stroke-width:0.264583;stroke-linecap:butt;stroke-linejoin:miter;stroke:rgb(0%,0%,0%);stroke-opacity:1;stroke-miterlimit:4;"
         d="M 22.487685 20.225057 L 28.367774 20.225057 L 28.367774 23.686689 L 22.487685 23.686689 Z M 22.487685 20.225057 "
         transform="matrix(2.834646,0,0,2.834646,-1.654774,60.79413)"
         id="path498" />
      <path
         style="fill-rule:nonzero;fill:rgb(100%,100%,100%);fill-opacity:1;stroke-width:0.264583;stroke-linecap:butt;stroke-linejoin:miter;stroke:rgb(0%,0%,0%);stroke-opacity:1;stroke-miterlimit:4;"
         d="M 16.606218 20.225057 L 22.487685 20.225057 L 22.487685 23.686689 L 16.606218 23.686689 Z M 16.606218 20.225057 "
         transform="matrix(2.834646,0,0,2.834646,-1.654774,60.79413)"
         id="path500" />
    </g>
    <g class="Regalgruppe_E"
       id="g702">
      <path
         style="fill-rule:nonzero;fill:rgb(100%,100%,100%);fill-opacity:1;stroke-width:0.264583;stroke-linecap:butt;stroke-linejoin:miter;stroke:rgb(0%,0%,0%);stroke-opacity:1;stroke-miterlimit:4;"
         d="M 16.606693 23.68661 L 22.486782 23.68661 L 22.486782 27.148242 L 16.606693 27.148242 Z M 16.606693 23.68661 "
         transform="matrix(2.834646,0,0,2.834646,133.972784,21.294353)"
         id="path502" />
      <path
         style="fill-rule:nonzero;fill:rgb(100%,100%,100%);fill-opacity:1;stroke-width:0.264583;stroke-linecap:butt;stroke-linejoin:miter;stroke:rgb(0%,0%,0%);stroke-opacity:1;stroke-miterlimit:4;"
         d="M 22.486782 23.68661 L 28.368249 23.68661 L 28.368249 27.148242 L 22.486782 27.148242 Z M 22.486782 23.68661 "
         transform="matrix(2.834646,0,0,2.834646,133.972784,21.294353)"
         id="path504" />
      <path
         style="fill-rule:nonzero;fill:rgb(100%,100%,100%);fill-opacity:1;stroke-width:0.264583;stroke-linecap:butt;stroke-linejoin:miter;stroke:rgb(0%,0%,0%);stroke-opacity:1;stroke-miterlimit:4;"
         d="M 28.368249 23.68661 L 34.248338 23.68661 L 34.248338 27.148242 L 28.368249 27.148242 Z M 28.368249 23.68661 "
         transform="matrix(2.834646,0,0,2.834646,133.972784,21.294353)"
         id="path506" />
      <path
         style="fill-rule:nonzero;fill:rgb(100%,100%,100%);fill-opacity:1;stroke-width:0.264583;stroke-linecap:butt;stroke-linejoin:miter;stroke:rgb(0%,0%,0%);stroke-opacity:1;stroke-miterlimit:4;"
         d="M 34.248338 23.68661 L 40.129805 23.68661 L 40.129805 27.148242 L 34.248338 27.148242 Z M 34.248338 23.68661 "
         transform="matrix(2.834646,0,0,2.834646,133.972784,21.294353)"
         id="path508" />
      <path
         style="fill-rule:nonzero;fill:rgb(100%,100%,100%);fill-opacity:1;stroke-width:0.264583;stroke-linecap:butt;stroke-linejoin:miter;stroke:rgb(0%,0%,0%);stroke-opacity:1;stroke-miterlimit:4;"
         d="M 40.129805 -27.148242 L 46.011272 -27.148242 L 46.011272 -23.68661 L 40.129805 -23.68661 Z M 40.129805 -27.148242 "
         transform="matrix(2.834646,0,0,-2.834646,133.972784,21.294353)"
         id="path510" />
      <path
         style="fill-rule:nonzero;fill:rgb(100%,100%,100%);fill-opacity:1;stroke-width:0.264583;stroke-linecap:butt;stroke-linejoin:miter;stroke:rgb(0%,0%,0%);stroke-opacity:1;stroke-miterlimit:4;"
         d="M 46.011272 23.68661 L 51.891361 23.68661 L 51.891361 27.148242 L 46.011272 27.148242 Z M 46.011272 23.68661 "
         transform="matrix(2.834646,0,0,2.834646,133.972784,21.294353)"
         id="path512" />
      <path
         style="fill-rule:nonzero;fill:rgb(100%,100%,100%);fill-opacity:1;stroke-width:0.264583;stroke-linecap:butt;stroke-linejoin:miter;stroke:rgb(0%,0%,0%);stroke-opacity:1;stroke-miterlimit:4;"
         d="M 46.011272 20.224978 L 51.891361 20.224978 L 51.891361 23.68661 L 46.011272 23.68661 Z M 46.011272 20.224978 "
         transform="matrix(2.834646,0,0,2.834646,133.972784,21.294353)"
         id="path514" />
      <path
         style="fill-rule:nonzero;fill:rgb(100%,100%,100%);fill-opacity:1;stroke-width:0.264583;stroke-linecap:butt;stroke-linejoin:miter;stroke:rgb(0%,0%,0%);stroke-opacity:1;stroke-miterlimit:4;"
         d="M 40.129805 20.224978 L 46.011272 20.224978 L 46.011272 23.68661 L 40.129805 23.68661 Z M 40.129805 20.224978 "
         transform="matrix(2.834646,0,0,2.834646,133.972784,21.294353)"
         id="path516" />
      <path
         style="fill-rule:nonzero;fill:rgb(100%,100%,100%);fill-opacity:1;stroke-width:0.264583;stroke-linecap:butt;stroke-linejoin:miter;stroke:rgb(0%,0%,0%);stroke-opacity:1;stroke-miterlimit:4;"
         d="M 34.248338 20.224978 L 40.129805 20.224978 L 40.129805 23.68661 L 34.248338 23.68661 Z M 34.248338 20.224978 "
         transform="matrix(2.834646,0,0,2.834646,133.972784,21.294353)"
         id="path518" />
      <path
         style="fill-rule:nonzero;fill:rgb(100%,100%,100%);fill-opacity:1;stroke-width:0.264583;stroke-linecap:butt;stroke-linejoin:miter;stroke:rgb(0%,0%,0%);stroke-opacity:1;stroke-miterlimit:4;"
         d="M 28.368249 20.224978 L 34.248338 20.224978 L 34.248338 23.68661 L 28.368249 23.68661 Z M 28.368249 20.224978 "
         transform="matrix(2.834646,0,0,2.834646,133.972784,21.294353)"
         id="path520" />
      <path
         style="fill-rule:nonzero;fill:rgb(100%,100%,100%);fill-opacity:1;stroke-width:0.264583;stroke-linecap:butt;stroke-linejoin:miter;stroke:rgb(0%,0%,0%);stroke-opacity:1;stroke-miterlimit:4;"
         d="M 22.486782 20.224978 L 28.368249 20.224978 L 28.368249 23.68661 L 22.486782 23.68661 Z M 22.486782 20.224978 "
         transform="matrix(2.834646,0,0,2.834646,133.972784,21.294353)"
         id="path522" />
      <path
         style="fill-rule:nonzero;fill:rgb(100%,100%,100%);fill-opacity:1;stroke-width:0.264583;stroke-linecap:butt;stroke-linejoin:miter;stroke:rgb(0%,0%,0%);stroke-opacity:1;stroke-miterlimit:4;"
         d="M 16.606693 20.224978 L 22.486782 20.224978 L 22.486782 23.68661 L 16.606693 23.68661 Z M 16.606693 20.224978 "
         transform="matrix(2.834646,0,0,2.834646,133.972784,21.294353)"
         id="path524" />
    </g>
    <g class="Regalgruppe_F"
       id="g631">
      <path
         style="fill-rule:nonzero;fill:rgb(100%,100%,100%);fill-opacity:1;stroke-width:0.264583;stroke-linecap:butt;stroke-linejoin:miter;stroke:rgb(0%,0%,0%);stroke-opacity:1;stroke-miterlimit:4;"
         d="M 16.606887 23.687319 L 22.486976 23.687319 L 22.486976 27.148951 L 16.606887 27.148951 Z M 16.606887 23.687319 "
         transform="matrix(2.834646,0,0,2.834646,-2.004329,21.643908)"
         id="path526" />
      <path
         style="fill-rule:nonzero;fill:rgb(100%,100%,100%);fill-opacity:1;stroke-width:0.264583;stroke-linecap:butt;stroke-linejoin:miter;stroke:rgb(0%,0%,0%);stroke-opacity:1;stroke-miterlimit:4;"
         d="M 22.486976 23.687319 L 28.368443 23.687319 L 28.368443 27.148951 L 22.486976 27.148951 Z M 22.486976 23.687319 "
         transform="matrix(2.834646,0,0,2.834646,-2.004329,21.643908)"
         id="path528" />
      <path
         style="fill-rule:nonzero;fill:rgb(100%,100%,100%);fill-opacity:1;stroke-width:0.264583;stroke-linecap:butt;stroke-linejoin:miter;stroke:rgb(0%,0%,0%);stroke-opacity:1;stroke-miterlimit:4;"
         d="M 28.368443 23.687319 L 34.248532 23.687319 L 34.248532 27.148951 L 28.368443 27.148951 Z M 28.368443 23.687319 "
         transform="matrix(2.834646,0,0,2.834646,-2.004329,21.643908)"
         id="path530" />
      <path
         style="fill-rule:nonzero;fill:rgb(100%,100%,100%);fill-opacity:1;stroke-width:0.264583;stroke-linecap:butt;stroke-linejoin:miter;stroke:rgb(0%,0%,0%);stroke-opacity:1;stroke-miterlimit:4;"
         d="M 34.248532 23.687319 L 40.129999 23.687319 L 40.129999 27.148951 L 34.248532 27.148951 Z M 34.248532 23.687319 "
         transform="matrix(2.834646,0,0,2.834646,-2.004329,21.643908)"
         id="path532" />
      <path
         style="fill-rule:nonzero;fill:rgb(100%,100%,100%);fill-opacity:1;stroke-width:0.264583;stroke-linecap:butt;stroke-linejoin:miter;stroke:rgb(0%,0%,0%);stroke-opacity:1;stroke-miterlimit:4;"
         d="M 40.129999 -27.148951 L 46.010088 -27.148951 L 46.010088 -23.687319 L 40.129999 -23.687319 Z M 40.129999 -27.148951 "
         transform="matrix(2.834646,0,0,-2.834646,-2.004329,21.643908)"
         id="path534" />
      <path
         style="fill-rule:nonzero;fill:rgb(100%,100%,100%);fill-opacity:1;stroke-width:0.264583;stroke-linecap:butt;stroke-linejoin:miter;stroke:rgb(0%,0%,0%);stroke-opacity:1;stroke-miterlimit:4;"
         d="M 46.010088 23.687319 L 51.891555 23.687319 L 51.891555 27.148951 L 46.010088 27.148951 Z M 46.010088 23.687319 "
         transform="matrix(2.834646,0,0,2.834646,-2.004329,21.643908)"
         id="path536" />
      <path
         style="fill-rule:nonzero;fill:rgb(100%,100%,100%);fill-opacity:1;stroke-width:0.264583;stroke-linecap:butt;stroke-linejoin:miter;stroke:rgb(0%,0%,0%);stroke-opacity:1;stroke-miterlimit:4;"
         d="M 46.010088 20.224309 L 51.891555 20.224309 L 51.891555 23.687319 L 46.010088 23.687319 Z M 46.010088 20.224309 "
         transform="matrix(2.834646,0,0,2.834646,-2.004329,21.643908)"
         id="path538" />
      <path
         style="fill-rule:nonzero;fill:rgb(100%,100%,100%);fill-opacity:1;stroke-width:0.264583;stroke-linecap:butt;stroke-linejoin:miter;stroke:rgb(0%,0%,0%);stroke-opacity:1;stroke-miterlimit:4;"
         d="M 40.129999 20.224309 L 46.010088 20.224309 L 46.010088 23.687319 L 40.129999 23.687319 Z M 40.129999 20.224309 "
         transform="matrix(2.834646,0,0,2.834646,-2.004329,21.643908)"
         id="path540" />
      <path
         style="fill-rule:nonzero;fill:rgb(100%,100%,100%);fill-opacity:1;stroke-width:0.264583;stroke-linecap:butt;stroke-linejoin:miter;stroke:rgb(0%,0%,0%);stroke-opacity:1;stroke-miterlimit:4;"
         d="M 34.248532 20.224309 L 40.129999 20.224309 L 40.129999 23.687319 L 34.248532 23.687319 Z M 34.248532 20.224309 "
         transform="matrix(2.834646,0,0,2.834646,-2.004329,21.643908)"
         id="path542" />
      <path
         style="fill-rule:nonzero;fill:rgb(100%,100%,100%);fill-opacity:1;stroke-width:0.264583;stroke-linecap:butt;stroke-linejoin:miter;stroke:rgb(0%,0%,0%);stroke-opacity:1;stroke-miterlimit:4;"
         d="M 28.368443 20.224309 L 34.248532 20.224309 L 34.248532 23.687319 L 28.368443 23.687319 Z M 28.368443 20.224309 "
         transform="matrix(2.834646,0,0,2.834646,-2.004329,21.643908)"
         id="path544" />
      <path
         style="fill-rule:nonzero;fill:rgb(100%,100%,100%);fill-opacity:1;stroke-width:0.264583;stroke-linecap:butt;stroke-linejoin:miter;stroke:rgb(0%,0%,0%);stroke-opacity:1;stroke-miterlimit:4;"
         d="M 22.486976 20.224309 L 28.368443 20.224309 L 28.368443 23.687319 L 22.486976 23.687319 Z M 22.486976 20.224309 "
         transform="matrix(2.834646,0,0,2.834646,-2.004329,21.643908)"
         id="path546" />
      <path
         style="fill-rule:nonzero;fill:rgb(100%,100%,100%);fill-opacity:1;stroke-width:0.264583;stroke-linecap:butt;stroke-linejoin:miter;stroke:rgb(0%,0%,0%);stroke-opacity:1;stroke-miterlimit:4;"
         d="M 16.606887 20.224309 L 22.486976 20.224309 L 22.486976 23.687319 L 16.606887 23.687319 Z M 16.606887 20.224309 "
         transform="matrix(2.834646,0,0,2.834646,-2.004329,21.643908)"
         id="path548" />
    </g>
    <g class="Regalgruppe_G"
       id="g673">
      <path
         style="fill-rule:nonzero;fill:rgb(100%,100%,100%);fill-opacity:1;stroke-width:0.264583;stroke-linecap:butt;stroke-linejoin:miter;stroke:rgb(0%,0%,0%);stroke-opacity:1;stroke-miterlimit:4;"
         d="M 16.605962 23.686014 L 22.487429 23.686014 L 22.487429 27.149024 L 16.605962 27.149024 Z M 16.605962 23.686014 "
         transform="matrix(2.834646,0,0,2.834646,134.685794,-14.21177)"
         id="path550" />
      <path
         style="fill-rule:nonzero;fill:rgb(100%,100%,100%);fill-opacity:1;stroke-width:0.264583;stroke-linecap:butt;stroke-linejoin:miter;stroke:rgb(0%,0%,0%);stroke-opacity:1;stroke-miterlimit:4;"
         d="M 22.487429 23.686014 L 28.367518 23.686014 L 28.367518 27.149024 L 22.487429 27.149024 Z M 22.487429 23.686014 "
         transform="matrix(2.834646,0,0,2.834646,134.685794,-14.21177)"
         id="path552" />
      <path
         style="fill-rule:nonzero;fill:rgb(100%,100%,100%);fill-opacity:1;stroke-width:0.264583;stroke-linecap:butt;stroke-linejoin:miter;stroke:rgb(0%,0%,0%);stroke-opacity:1;stroke-miterlimit:4;"
         d="M 28.367518 23.686014 L 34.248985 23.686014 L 34.248985 27.149024 L 28.367518 27.149024 Z M 28.367518 23.686014 "
         transform="matrix(2.834646,0,0,2.834646,134.685794,-14.21177)"
         id="path554" />
      <path
         style="fill-rule:nonzero;fill:rgb(100%,100%,100%);fill-opacity:1;stroke-width:0.264583;stroke-linecap:butt;stroke-linejoin:miter;stroke:rgb(0%,0%,0%);stroke-opacity:1;stroke-miterlimit:4;"
         d="M 34.248985 23.686014 L 40.129074 23.686014 L 40.129074 27.149024 L 34.248985 27.149024 Z M 34.248985 23.686014 "
         transform="matrix(2.834646,0,0,2.834646,134.685794,-14.21177)"
         id="path556" />
      <path
         style="fill-rule:nonzero;fill:rgb(100%,100%,100%);fill-opacity:1;stroke-width:0.264583;stroke-linecap:butt;stroke-linejoin:miter;stroke:rgb(0%,0%,0%);stroke-opacity:1;stroke-miterlimit:4;"
         d="M 40.129074 -27.149024 L 46.010541 -27.149024 L 46.010541 -23.686014 L 40.129074 -23.686014 Z M 40.129074 -27.149024 "
         transform="matrix(2.834646,0,0,-2.834646,134.685794,-14.21177)"
         id="path558" />
      <path
         style="fill-rule:nonzero;fill:rgb(100%,100%,100%);fill-opacity:1;stroke-width:0.264583;stroke-linecap:butt;stroke-linejoin:miter;stroke:rgb(0%,0%,0%);stroke-opacity:1;stroke-miterlimit:4;"
         d="M 46.010541 23.686014 L 51.892008 23.686014 L 51.892008 27.149024 L 46.010541 27.149024 Z M 46.010541 23.686014 "
         transform="matrix(2.834646,0,0,2.834646,134.685794,-14.21177)"
         id="path560" />
      <path
         style="fill-rule:nonzero;fill:rgb(100%,100%,100%);fill-opacity:1;stroke-width:0.264583;stroke-linecap:butt;stroke-linejoin:miter;stroke:rgb(0%,0%,0%);stroke-opacity:1;stroke-miterlimit:4;"
         d="M 46.010541 20.224382 L 51.892008 20.224382 L 51.892008 23.686014 L 46.010541 23.686014 Z M 46.010541 20.224382 "
         transform="matrix(2.834646,0,0,2.834646,134.685794,-14.21177)"
         id="path562" />
      <path
         style="fill-rule:nonzero;fill:rgb(100%,100%,100%);fill-opacity:1;stroke-width:0.264583;stroke-linecap:butt;stroke-linejoin:miter;stroke:rgb(0%,0%,0%);stroke-opacity:1;stroke-miterlimit:4;"
         d="M 40.129074 20.224382 L 46.010541 20.224382 L 46.010541 23.686014 L 40.129074 23.686014 Z M 40.129074 20.224382 "
         transform="matrix(2.834646,0,0,2.834646,134.685794,-14.21177)"
         id="path564" />
      <path
         style="fill-rule:nonzero;fill:rgb(100%,100%,100%);fill-opacity:1;stroke-width:0.264583;stroke-linecap:butt;stroke-linejoin:miter;stroke:rgb(0%,0%,0%);stroke-opacity:1;stroke-miterlimit:4;"
         d="M 34.248985 20.224382 L 40.129074 20.224382 L 40.129074 23.686014 L 34.248985 23.686014 Z M 34.248985 20.224382 "
         transform="matrix(2.834646,0,0,2.834646,134.685794,-14.21177)"
         id="path566" />
      <path
         style="fill-rule:nonzero;fill:rgb(100%,100%,100%);fill-opacity:1;stroke-width:0.264583;stroke-linecap:butt;stroke-linejoin:miter;stroke:rgb(0%,0%,0%);stroke-opacity:1;stroke-miterlimit:4;"
         d="M 28.367518 20.224382 L 34.248985 20.224382 L 34.248985 23.686014 L 28.367518 23.686014 Z M 28.367518 20.224382 "
         transform="matrix(2.834646,0,0,2.834646,134.685794,-14.21177)"
         id="path568" />
      <path
         style="fill-rule:nonzero;fill:rgb(100%,100%,100%);fill-opacity:1;stroke-width:0.264583;stroke-linecap:butt;stroke-linejoin:miter;stroke:rgb(0%,0%,0%);stroke-opacity:1;stroke-miterlimit:4;"
         d="M 22.487429 20.224382 L 28.367518 20.224382 L 28.367518 23.686014 L 22.487429 23.686014 Z M 22.487429 20.224382 "
         transform="matrix(2.834646,0,0,2.834646,134.685794,-14.21177)"
         id="path570" />
      <path
         style="fill-rule:nonzero;fill:rgb(100%,100%,100%);fill-opacity:1;stroke-width:0.264583;stroke-linecap:butt;stroke-linejoin:miter;stroke:rgb(0%,0%,0%);stroke-opacity:1;stroke-miterlimit:4;"
         d="M 16.605962 20.224382 L 22.487429 20.224382 L 22.487429 23.686014 L 16.605962 23.686014 Z M 16.605962 20.224382 "
         transform="matrix(2.834646,0,0,2.834646,134.685794,-14.21177)"
         id="path572" />
    </g>
    <g class="Regalgruppe_H"
       id="g617">
      <path
         style="fill-rule:nonzero;fill:rgb(100%,100%,100%);fill-opacity:1;stroke-width:0.264583;stroke-linecap:butt;stroke-linejoin:miter;stroke:rgb(0%,0%,0%);stroke-opacity:1;stroke-miterlimit:4;"
         d="M 16.606201 23.685995 L 22.487668 23.685995 L 22.487668 27.149005 L 16.606201 27.149005 Z M 16.606201 23.685995 "
         transform="matrix(2.834646,0,0,2.834646,-1.232852,-14.547653)"
         id="path574" />
      <path
         style="fill-rule:nonzero;fill:rgb(100%,100%,100%);fill-opacity:1;stroke-width:0.264583;stroke-linecap:butt;stroke-linejoin:miter;stroke:rgb(0%,0%,0%);stroke-opacity:1;stroke-miterlimit:4;"
         d="M 22.487668 23.685995 L 28.367757 23.685995 L 28.367757 27.149005 L 22.487668 27.149005 Z M 22.487668 23.685995 "
         transform="matrix(2.834646,0,0,2.834646,-1.232852,-14.547653)"
         id="path576" />
      <path
         style="fill-rule:nonzero;fill:rgb(100%,100%,100%);fill-opacity:1;stroke-width:0.264583;stroke-linecap:butt;stroke-linejoin:miter;stroke:rgb(0%,0%,0%);stroke-opacity:1;stroke-miterlimit:4;"
         d="M 28.367757 23.685995 L 34.249224 23.685995 L 34.249224 27.149005 L 28.367757 27.149005 Z M 28.367757 23.685995 "
         transform="matrix(2.834646,0,0,2.834646,-1.232852,-14.547653)"
         id="path578" />
      <path
         style="fill-rule:nonzero;fill:rgb(100%,100%,100%);fill-opacity:1;stroke-width:0.264583;stroke-linecap:butt;stroke-linejoin:miter;stroke:rgb(0%,0%,0%);stroke-opacity:1;stroke-miterlimit:4;"
         d="M 34.249224 23.685995 L 40.129313 23.685995 L 40.129313 27.149005 L 34.249224 27.149005 Z M 34.249224 23.685995 "
         transform="matrix(2.834646,0,0,2.834646,-1.232852,-14.547653)"
         id="path580" />
      <path
         style="fill-rule:nonzero;fill:rgb(100%,100%,100%);fill-opacity:1;stroke-width:0.264583;stroke-linecap:butt;stroke-linejoin:miter;stroke:rgb(0%,0%,0%);stroke-opacity:1;stroke-miterlimit:4;"
         d="M 40.129313 -27.149005 L 46.01078 -27.149005 L 46.01078 -23.685995 L 40.129313 -23.685995 Z M 40.129313 -27.149005 "
         transform="matrix(2.834646,0,0,-2.834646,-1.232852,-14.547653)"
         id="path582" />
      <path
         style="fill-rule:nonzero;fill:rgb(100%,100%,100%);fill-opacity:1;stroke-width:0.264583;stroke-linecap:butt;stroke-linejoin:miter;stroke:rgb(0%,0%,0%);stroke-opacity:1;stroke-miterlimit:4;"
         d="M 46.01078 23.685995 L 51.890869 23.685995 L 51.890869 27.149005 L 46.01078 27.149005 Z M 46.01078 23.685995 "
         transform="matrix(2.834646,0,0,2.834646,-1.232852,-14.547653)"
         id="path584" />
      <path
         style="fill-rule:nonzero;fill:rgb(100%,100%,100%);fill-opacity:1;stroke-width:0.264583;stroke-linecap:butt;stroke-linejoin:miter;stroke:rgb(0%,0%,0%);stroke-opacity:1;stroke-miterlimit:4;"
         d="M 46.01078 20.224363 L 51.890869 20.224363 L 51.890869 23.685995 L 46.01078 23.685995 Z M 46.01078 20.224363 "
         transform="matrix(2.834646,0,0,2.834646,-1.232852,-14.547653)"
         id="path586" />
      <path
         style="fill-rule:nonzero;fill:rgb(100%,100%,100%);fill-opacity:1;stroke-width:0.264583;stroke-linecap:butt;stroke-linejoin:miter;stroke:rgb(0%,0%,0%);stroke-opacity:1;stroke-miterlimit:4;"
         d="M 40.129313 20.224363 L 46.01078 20.224363 L 46.01078 23.685995 L 40.129313 23.685995 Z M 40.129313 20.224363 "
         transform="matrix(2.834646,0,0,2.834646,-1.232852,-14.547653)"
         id="path588" />
      <path
         style="fill-rule:nonzero;fill:rgb(100%,100%,100%);fill-opacity:1;stroke-width:0.264583;stroke-linecap:butt;stroke-linejoin:miter;stroke:rgb(0%,0%,0%);stroke-opacity:1;stroke-miterlimit:4;"
         d="M 34.249224 20.224363 L 40.129313 20.224363 L 40.129313 23.685995 L 34.249224 23.685995 Z M 34.249224 20.224363 "
         transform="matrix(2.834646,0,0,2.834646,-1.232852,-14.547653)"
         id="path590" />
      <path
         style="fill-rule:nonzero;fill:rgb(100%,100%,100%);fill-opacity:1;stroke-width:0.264583;stroke-linecap:butt;stroke-linejoin:miter;stroke:rgb(0%,0%,0%);stroke-opacity:1;stroke-miterlimit:4;"
         d="M 28.367757 20.224363 L 34.249224 20.224363 L 34.249224 23.685995 L 28.367757 23.685995 Z M 28.367757 20.224363 "
         transform="matrix(2.834646,0,0,2.834646,-1.232852,-14.547653)"
         id="path592" />
      <path
         style="fill-rule:nonzero;fill:rgb(100%,100%,100%);fill-opacity:1;stroke-width:0.264583;stroke-linecap:butt;stroke-linejoin:miter;stroke:rgb(0%,0%,0%);stroke-opacity:1;stroke-miterlimit:4;"
         d="M 22.487668 20.224363 L 28.367757 20.224363 L 28.367757 23.685995 L 22.487668 23.685995 Z M 22.487668 20.224363 "
         transform="matrix(2.834646,0,0,2.834646,-1.232852,-14.547653)"
         id="path594" />
      <path
         style="fill-rule:nonzero;fill:rgb(100%,100%,100%);fill-opacity:1;stroke-width:0.264583;stroke-linecap:butt;stroke-linejoin:miter;stroke:rgb(0%,0%,0%);stroke-opacity:1;stroke-miterlimit:4;"
         d="M 16.606201 20.224363 L 22.487668 20.224363 L 22.487668 23.685995 L 16.606201 23.685995 Z M 16.606201 20.224363 "
         transform="matrix(2.834646,0,0,2.834646,-1.232852,-14.547653)"
         id="path596" />
    </g>
  </g>
</svg>
